<?xml version="1.0" encoding="UTF-8"?>
<svg version="1.1" xmlns="http://www.w3.org/2000/svg" width="500" height="500">
<path d="M0 0 C12.3613443 -0.09283679 24.72260513 -0.16383459 37.08422756 -0.20724869 C42.82475063 -0.22808932 48.5650345 -0.25634289 54.30541992 -0.30175781 C59.84918113 -0.34534077 65.3927128 -0.3691636 70.93663216 -0.37950897 C73.04766514 -0.38687797 75.1586861 -0.40126784 77.2696209 -0.42292023 C80.23527679 -0.45211939 83.1999941 -0.45594907 86.16577148 -0.45410156 C87.0310849 -0.46848267 87.89639832 -0.48286377 88.78793335 -0.49768066 C98.25427872 -0.43421251 106.08200394 3.680396 113 10 C120.16918422 17.67200031 122.59836589 25.66615334 122.28125 36.078125 C121.35162916 45.73585263 116.70397924 52.80134083 109.625 59.25 C104.12625048 63.65620322 99.33193475 66.07050343 92.234375 66.60546875 C91.25178711 66.6830542 90.26919922 66.76063965 89.25683594 66.84057617 C88.13970215 66.91949097 88.13970215 66.91949097 87 67 C87.26103516 67.76739502 87.52207031 68.53479004 87.79101562 69.32543945 C89.03267792 72.98600558 90.2679021 76.64870663 91.5 80.3125 C91.83930038 81.31966064 91.83930038 81.31966064 92.18545532 82.34716797 C95.43161878 92.00520339 98.40076811 101.69843924 101.1875 111.5 C104.88714992 124.33518088 109.29655178 135.65880615 118 146 C118.45890625 146.59039062 118.9178125 147.18078125 119.390625 147.7890625 C133.79224356 165.75152081 155.22057686 171.33428936 177 174 C177 175.32 177 176.64 177 178 C154.10406275 179.45627869 132.60966173 171.01441373 115.35083008 156.12646484 C97.53465248 140.18493028 90.69307614 120.22993688 84 98 C83.58972572 96.64430568 83.17923679 95.2886763 82.76855469 93.93310547 C80.15390938 85.29613863 77.56848963 76.65081578 75 68 C69.06 67.67 63.12 67.34 57 67 C56.67 66.01 56.34 65.02 56 64 C56.82089111 63.9906543 57.64178223 63.98130859 58.48754883 63.97167969 C61.58748492 63.92717987 64.68649953 63.86535424 67.78588867 63.79248047 C69.76523235 63.75099079 71.74495031 63.72877488 73.72460938 63.70703125 C85.42875964 63.41072365 94.53370054 61.40177157 103.12109375 53.15234375 C108.68248109 46.7816069 110.34888697 39.76549531 110.2109375 31.4609375 C109.52677852 23.47908269 106.64616496 16.7097479 101 11 C94.48294189 5.79430114 87.58476893 3.74041026 79.23852539 3.77294922 C77.28729515 3.77317581 77.28729515 3.77317581 75.29664612 3.77340698 C73.89698123 3.78361719 72.49731795 3.79404913 71.09765625 3.8046875 C69.65034685 3.80842267 68.20303489 3.81126726 66.75572205 3.81326294 C62.96634813 3.82085976 59.17713015 3.84047375 55.38781738 3.8626709 C51.51312366 3.88321497 47.63840449 3.89228288 43.76367188 3.90234375 C36.17571055 3.92372383 28.58787721 3.95781138 21 4 C21.48197342 4.5222113 21.96394684 5.04442261 22.46052551 5.5824585 C23.09206039 6.28195618 23.72359528 6.98145386 24.37426758 7.70214844 C25.000616 8.38935974 25.62696442 9.07657104 26.27229309 9.78460693 C29.20366984 13.54343413 30.35478501 17.7279976 31.6875 22.25 C32.36333381 24.39883089 33.04050298 26.54724209 33.71875 28.6953125 C34.26208984 30.44763184 34.26208984 30.44763184 34.81640625 32.23535156 C36.77588194 38.46784231 38.85485895 44.66004442 40.92837524 50.85534668 C41.69606639 53.15061206 42.46098007 55.44678798 43.2253418 57.74316406 C47.18903823 69.63991213 51.23609109 81.50721897 55.31332397 93.36547852 C58.35793666 102.22128594 61.37394705 111.08492535 64.3125 119.9765625 C64.58211548 120.79131042 64.85173096 121.60605835 65.1295166 122.44549561 C66.41114875 126.32096257 67.68748687 130.19804328 68.95507812 134.078125 C75.15863015 152.95876471 81.98746027 170.63263865 100.51171875 180.3125 C109.0555959 184.22892936 117.77732356 185.65593696 127 187 C127 188.32 127 189.64 127 191 C109.54492644 191.61848686 93.24079796 187.82774838 80 176 C79.32710938 175.47921875 78.65421875 174.9584375 77.9609375 174.421875 C67.44195913 166.05542888 63.17856946 155.34285387 59 143 C58.38907187 141.20819881 57.77797707 139.41645443 57.16674805 137.62475586 C54.72129354 130.44216233 52.2890177 123.25511108 49.86303711 116.06591797 C48.81607335 112.96499081 47.76568095 109.86524132 46.71484375 106.765625 C46.4011937 105.83308899 46.08754364 104.90055298 45.76438904 103.9397583 C39.38624916 85.11857879 39.38624916 85.11857879 25 72 C17.5106529 68.33500035 11.24233678 67.78657665 3 68 C2.67314209 69.0108667 2.34628418 70.0217334 2.00952148 71.06323242 C-9.9600459 108.07154468 -9.9600459 108.07154468 -16 126 C-16.99 126 -17.98 126 -19 126 C-18.60105748 119.34092711 -17.4979683 113.73284935 -15 107.5625 C-11.79188226 99.2601969 -8.87456988 90.88209221 -6.0625 82.4375 C-5.66095703 81.24133057 -5.25941406 80.04516113 -4.84570312 78.81274414 C-4.47509766 77.69762451 -4.10449219 76.58250488 -3.72265625 75.43359375 C-3.39015869 74.43384521 -3.05766113 73.43409668 -2.71508789 72.40405273 C-1.90496479 70.09852643 -1.90496479 70.09852643 -2 68 C-10.17746821 71.6854617 -16.56967418 74.60872318 -22 82 C-22.66 82 -23.32 82 -24 82 C-24.20496094 82.61488281 -24.40992188 83.22976562 -24.62109375 83.86328125 C-25.74739583 87.2421875 -26.87369792 90.62109375 -28 94 C-28.25136656 97.07885945 -28.23125601 100.16192753 -28.25 103.25 C-28.270625 104.08402344 -28.29125 104.91804688 -28.3125 105.77734375 C-28.37025267 114.97445701 -24.72965944 121.88015108 -19 129 C-11.36537256 136.42118625 -2.77522682 139.33141691 7.6875 139.4375 C8.75665649 139.45272705 8.75665649 139.45272705 9.84741211 139.46826172 C15.65453599 139.37247689 20.752247 138.247753 25 134 C24.74674293 130.13782967 24.4953508 127.07326006 22.875 123.5625 C21.52468748 119.60801332 21.97955648 116.01424472 23 112 C25.14867511 108.69434598 26.51819706 108.13635932 30.3125 107.0625 C34.75732474 106.98716399 37.18483556 107.72557505 41 110 C43.19812535 113.09111377 43.97838758 115.02744131 44.0625 118.8125 C40.68935106 128.93194682 33.05317763 136.08659975 23.75 140.875 C15.31449774 144.93156319 5.06909516 145.51140047 -4.02734375 143.24609375 C-8.95049205 141.31172886 -13.44038157 138.65977742 -18 136 C-18.66 136 -19.32 136 -20 136 C-20.84039886 138.58122508 -21.67250556 141.16463901 -22.5 143.75 C-22.73847656 144.47960937 -22.97695312 145.20921875 -23.22265625 145.9609375 C-23.44824219 146.66992188 -23.67382812 147.37890625 -23.90625 148.109375 C-24.11572266 148.75874023 -24.32519531 149.40810547 -24.54101562 150.07714844 C-25.15478468 152.31897028 -25.15478468 152.31897028 -25 156 C-24.01 156.66 -23.02 157.32 -22 158 C-22.33 158.99 -22.66 159.98 -23 161 C-27.62 161 -32.24 161 -37 161 C-36.505 159.02 -36.505 159.02 -36 157 C-35.236875 156.62875 -34.47375 156.2575 -33.6875 155.875 C-29.478128 152.93822884 -28.59994323 148.73802932 -27 144 C-26.70996094 143.19304687 -26.41992188 142.38609375 -26.12109375 141.5546875 C-24.66074217 137.39233275 -23.56339979 133.39451834 -23 129 C-23.66 129 -24.32 129 -25 129 C-32.77844178 118.68510982 -33.89569975 108.62122373 -33 96 C-31.64968169 89.47037858 -28.6850392 83.5275588 -25 78 C-24.34 78 -23.68 78 -23 78 C-22.76410156 77.41347656 -22.52820313 76.82695312 -22.28515625 76.22265625 C-18.64350276 69.92447743 -10.62437059 66.44513592 -3.91015625 64.41015625 C-2 64 -2 64 1 64 C1.37705078 62.13601562 1.37705078 62.13601562 1.76171875 60.234375 C3.05214977 54.43819843 4.90857903 48.86921428 6.8125 43.25 C7.16562256 42.19321045 7.51874512 41.1364209 7.88256836 40.04760742 C10.11706408 33.41749938 12.50467381 26.91092919 15.28515625 20.48828125 C16.40704406 16.5831308 15.45682935 13.95934163 13.75 10.375 C10.11296546 5.43902455 4.5767848 3.9849573 -1 2 C-0.67 1.34 -0.34 0.68 0 0 Z M18 23 C14.51745085 32.01890933 11.22060537 41.0905423 8.125 50.25 C7.8148999 51.15451904 7.5047998 52.05903809 7.18530273 52.9909668 C6.89985596 53.844729 6.61440918 54.69849121 6.3203125 55.578125 C5.93770264 56.71362793 5.93770264 56.71362793 5.54736328 57.87207031 C4.83392103 60.27944855 4.83392103 60.27944855 5 64 C6.05058594 64.08636719 7.10117188 64.17273438 8.18359375 64.26171875 C19.47334886 65.33353946 27.05120283 67.56945754 35 76 C35.66 76 36.32 76 37 76 C34.39305613 66.99767032 31.40062408 58.12845078 28.40942383 49.2487793 C25.47721284 40.53589232 22.65593223 31.80132217 20 23 C19.34 23 18.68 23 18 23 Z " fill="#AC8E4C" transform="translate(187,116)"/>
<path d="M0 0 C0.495 0.99 0.495 0.99 1 2 C1.66 2 2.32 2 3 2 C1.57827983 7.08047352 0.03104943 12.10477632 -1.6015625 17.12109375 C-1.8428891 17.86585464 -2.0842157 18.61061554 -2.33285522 19.37794495 C-3.09576844 21.7314999 -3.86035562 24.08450699 -4.625 26.4375 C-5.14594455 28.04358372 -5.66677896 29.64970317 -6.1875 31.25585938 C-7.45706062 35.17098706 -8.7281217 39.08562467 -10 43 C-8.7919873 42.97172119 -8.7919873 42.97172119 -7.55957031 42.94287109 C-6.49319336 42.92820801 -5.42681641 42.91354492 -4.328125 42.8984375 C-3.2752832 42.87958496 -2.22244141 42.86073242 -1.13769531 42.84130859 C6.82442768 43.24399922 14.34875063 47.47503554 20 53 C20 53.66 20 54.32 20 55 C20.99 54.67 21.98 54.34 23 54 C23.495 56.475 23.495 56.475 24 59 C22.515 59.495 22.515 59.495 21 60 C20.45472656 59.46890625 19.90945312 58.9378125 19.34765625 58.390625 C11.59973153 51.13273996 4.01015354 46.80940293 -6.75 46.9375 C-8.22726563 46.95103516 -8.22726563 46.95103516 -9.734375 46.96484375 C-10.48203125 46.97644531 -11.2296875 46.98804688 -12 47 C-12.32685791 48.0108667 -12.65371582 49.0217334 -12.99047852 50.06323242 C-24.9600459 87.07154468 -24.9600459 87.07154468 -31 105 C-31.99 105 -32.98 105 -34 105 C-33.60105748 98.34092711 -32.4979683 92.73284935 -30 86.5625 C-26.79188226 78.2601969 -23.87456988 69.88209221 -21.0625 61.4375 C-20.66095703 60.24133057 -20.25941406 59.04516113 -19.84570312 57.81274414 C-19.47509766 56.69762451 -19.10449219 55.58250488 -18.72265625 54.43359375 C-18.39015869 53.43384521 -18.05766113 52.43409668 -17.71508789 51.40405273 C-16.90496479 49.09852643 -16.90496479 49.09852643 -17 47 C-25.17746821 50.6854617 -31.56967418 53.60872318 -37 61 C-37.66 61 -38.32 61 -39 61 C-39.20496094 61.61488281 -39.40992188 62.22976562 -39.62109375 62.86328125 C-40.74739583 66.2421875 -41.87369792 69.62109375 -43 73 C-43.25136656 76.07885945 -43.23125601 79.16192753 -43.25 82.25 C-43.270625 83.08402344 -43.29125 83.91804688 -43.3125 84.77734375 C-43.37025267 93.97445701 -39.72965944 100.88015108 -34 108 C-26.36537256 115.42118625 -17.77522682 118.33141691 -7.3125 118.4375 C-6.599729 118.44765137 -5.88695801 118.45780273 -5.15258789 118.46826172 C0.65453599 118.37247689 5.752247 117.247753 10 113 C9.74674293 109.13782967 9.4953508 106.07326006 7.875 102.5625 C6.52468748 98.60801332 6.97955648 95.01424472 8 91 C10.14867511 87.69434598 11.51819706 87.13635932 15.3125 86.0625 C19.75732474 85.98716399 22.18483556 86.72557505 26 89 C28.19812535 92.09111377 28.97838758 94.02744131 29.0625 97.8125 C25.68935106 107.93194682 18.05317763 115.08659975 8.75 119.875 C0.31449774 123.93156319 -9.93090484 124.51140047 -19.02734375 122.24609375 C-23.95049205 120.31172886 -28.44038157 117.65977742 -33 115 C-33.66 115 -34.32 115 -35 115 C-35.84039886 117.58122508 -36.67250556 120.16463901 -37.5 122.75 C-37.73847656 123.47960937 -37.97695312 124.20921875 -38.22265625 124.9609375 C-38.44824219 125.66992188 -38.67382812 126.37890625 -38.90625 127.109375 C-39.22045898 128.08342285 -39.22045898 128.08342285 -39.54101562 129.07714844 C-40.15478468 131.31897028 -40.15478468 131.31897028 -40 135 C-39.01 135.66 -38.02 136.32 -37 137 C-37.33 137.99 -37.66 138.98 -38 140 C-42.62 140 -47.24 140 -52 140 C-51.505 138.02 -51.505 138.02 -51 136 C-50.236875 135.62875 -49.47375 135.2575 -48.6875 134.875 C-44.478128 131.93822884 -43.59994323 127.73802932 -42 123 C-41.70996094 122.19304687 -41.41992188 121.38609375 -41.12109375 120.5546875 C-39.66074217 116.39233275 -38.56339979 112.39451834 -38 108 C-38.66 108 -39.32 108 -40 108 C-47.77844178 97.68510982 -48.89569975 87.62122373 -48 75 C-46.64968169 68.47037858 -43.6850392 62.5275588 -40 57 C-39.34 57 -38.68 57 -38 57 C-37.76410156 56.41347656 -37.52820313 55.82695312 -37.28515625 55.22265625 C-33.64350276 48.92447743 -25.62437059 45.44513592 -18.91015625 43.41015625 C-17 43 -17 43 -14 43 C-13.74992187 41.76121094 -13.49984375 40.52242187 -13.2421875 39.24609375 C-11.93704082 33.38210871 -10.04987155 27.74766896 -8.125 22.0625 C-7.78597656 21.04220703 -7.44695312 20.02191406 -7.09765625 18.97070312 C-4.94379594 12.55416492 -2.58873821 6.25366424 0 0 Z " fill="#6E5B30" transform="translate(202,137)"/>
<path d="M0 0 C12.3613443 -0.09283679 24.72260513 -0.16383459 37.08422756 -0.20724869 C42.82475063 -0.22808932 48.5650345 -0.25634289 54.30541992 -0.30175781 C59.84918113 -0.34534077 65.3927128 -0.3691636 70.93663216 -0.37950897 C73.04766514 -0.38687797 75.1586861 -0.40126784 77.2696209 -0.42292023 C80.23527679 -0.45211939 83.1999941 -0.45594907 86.16577148 -0.45410156 C87.0310849 -0.46848267 87.89639832 -0.48286377 88.78793335 -0.49768066 C98.25427872 -0.43421251 106.08200394 3.680396 113 10 C120.16918422 17.67200031 122.59836589 25.66615334 122.28125 36.078125 C121.26619259 46.62344366 115.76787425 54.014417 107.80859375 60.67578125 C103.36425394 63.92984431 100.25839024 65.38140713 94.6875 65.6875 C93.61886719 65.75324219 92.55023438 65.81898438 91.44921875 65.88671875 C90.23685547 65.94279297 90.23685547 65.94279297 89 66 C89 64.68 89 63.36 89 62 C89.96099609 61.5978125 89.96099609 61.5978125 90.94140625 61.1875 C99.55629022 57.28448252 105.43015708 51.92460731 109 43 C111.38632969 34.97325468 110.24781534 26.5986623 107 19 C102.99511398 11.86356759 97.54868343 7.49124144 89.80088806 4.95120239 C86.01228023 4.00307323 82.8578135 3.7584439 78.96313477 3.77294922 C77.96673729 3.77251114 77.96673729 3.77251114 76.95021057 3.77206421 C74.78047068 3.77344437 72.61108526 3.78894251 70.44140625 3.8046875 C68.92683601 3.80842232 67.41226335 3.81126708 65.89768982 3.81326294 C61.93076794 3.82086249 57.96399485 3.84047893 53.99713135 3.8626709 C49.94146741 3.88320899 45.88577919 3.89228162 41.83007812 3.90234375 C33.88665083 3.92372868 25.94334398 3.95781965 18 4 C17.67 3.34 17.34 2.68 17 2 C14.28553021 1.68758545 11.66090639 1.48663408 8.9375 1.375 C7.79958008 1.31699219 7.79958008 1.31699219 6.63867188 1.2578125 C4.75952805 1.16326438 2.87979664 1.08053244 1 1 C0.67 1.66 0.34 2.32 0 3 C0 2.01 0 1.02 0 0 Z " fill="#957B41" transform="translate(187,116)"/>
<path d="M0 0 C0.495 0.99 0.495 0.99 1 2 C1.66 2 2.32 2 3 2 C1.57827983 7.08047352 0.03104943 12.10477632 -1.6015625 17.12109375 C-1.8428891 17.86585464 -2.0842157 18.61061554 -2.33285522 19.37794495 C-3.09576844 21.7314999 -3.86035562 24.08450699 -4.625 26.4375 C-5.14594455 28.04358372 -5.66677896 29.64970317 -6.1875 31.25585938 C-7.45706062 35.17098706 -8.7281217 39.08562467 -10 43 C-8.7919873 42.97172119 -8.7919873 42.97172119 -7.55957031 42.94287109 C-6.49319336 42.92820801 -5.42681641 42.91354492 -4.328125 42.8984375 C-3.2752832 42.87958496 -2.22244141 42.86073242 -1.13769531 42.84130859 C6.82442768 43.24399922 14.34875063 47.47503554 20 53 C20 53.66 20 54.32 20 55 C21.485 54.505 21.485 54.505 23 54 C23.495 56.475 23.495 56.475 24 59 C22.515 59.495 22.515 59.495 21 60 C20.45472656 59.46890625 19.90945312 58.9378125 19.34765625 58.390625 C11.59973153 51.13273996 4.01015354 46.80940293 -6.75 46.9375 C-8.22726563 46.95103516 -8.22726563 46.95103516 -9.734375 46.96484375 C-10.48203125 46.97644531 -11.2296875 46.98804688 -12 47 C-12.32685791 48.0108667 -12.65371582 49.0217334 -12.99047852 50.06323242 C-24.9600459 87.07154468 -24.9600459 87.07154468 -31 105 C-31.99 105 -32.98 105 -34 105 C-33.60105748 98.34092711 -32.4979683 92.73284935 -30 86.5625 C-26.79188226 78.2601969 -23.87456988 69.88209221 -21.0625 61.4375 C-20.66095703 60.24133057 -20.25941406 59.04516113 -19.84570312 57.81274414 C-19.47509766 56.69762451 -19.10449219 55.58250488 -18.72265625 54.43359375 C-18.39015869 53.43384521 -18.05766113 52.43409668 -17.71508789 51.40405273 C-16.90496479 49.09852643 -16.90496479 49.09852643 -17 47 C-25.17746821 50.6854617 -31.56967418 53.60872318 -37 61 C-37.66 61 -38.32 61 -39 61 C-39.28875 61.639375 -39.5775 62.27875 -39.875 62.9375 C-41 65 -41 65 -43 66 C-42.01 63.03 -41.02 60.06 -40 57 C-39.34 57 -38.68 57 -38 57 C-37.76410156 56.41347656 -37.52820313 55.82695312 -37.28515625 55.22265625 C-33.64350276 48.92447743 -25.62437059 45.44513592 -18.91015625 43.41015625 C-17 43 -17 43 -14 43 C-13.74992187 41.76121094 -13.49984375 40.52242187 -13.2421875 39.24609375 C-11.93704082 33.38210871 -10.04987155 27.74766896 -8.125 22.0625 C-7.78597656 21.04220703 -7.44695312 20.02191406 -7.09765625 18.97070312 C-4.94379594 12.55416492 -2.58873821 6.25366424 0 0 Z " fill="#735F32" transform="translate(202,137)"/>
<path d="M0 0 C2.69425799 3.64517258 3.34907811 5.31874508 3.125 9.875 C0.08495726 17.34691227 -5.24527272 23.34882255 -11.875 27.875 C-15.4375 28.875 -15.4375 28.875 -17.875 28.875 C-17.215 27.885 -16.555 26.895 -15.875 25.875 C-15.47049586 21.7490578 -15.80581043 18.74989209 -17.4375 15 C-19.2807763 10.48836182 -19.23555705 6.54502015 -17.875 1.875 C-16.07843269 -0.60302388 -14.82294124 -1.70006083 -12.0625 -2.9375 C-7.24251468 -3.3506416 -3.9319071 -2.9061922 0 0 Z " fill="#B59550" transform="translate(227.875,226.125)"/>
<path d="M0 0 C0 1.66666667 0 3.33333333 0 5 C0.33 5.66 0.66 6.32 1 7 C0.30003906 8.50046875 0.30003906 8.50046875 -0.4140625 10.03125 C-2.44752679 14.51089994 -2.44404132 18.6440935 -2.375 23.5 C-2.38660156 24.31597656 -2.39820313 25.13195312 -2.41015625 25.97265625 C-2.37392652 33.49636396 -0.19602635 38.61323857 4.125 44.8125 C6.94170404 48.88340807 6.94170404 48.88340807 8 51 C6.68 50.67 5.36 50.34 4 50 C3.67 51.32 3.34 52.64 3 54 C3 52.35 3 50.7 3 49 C2.34 49 1.68 49 1 49 C-6.77844178 38.68510982 -7.89569975 28.62122373 -7 16 C-5.92183652 10.78641495 -3.81596411 3.81596411 0 0 Z " fill="#836C3A" transform="translate(161,196)"/>
<path d="M0 0 C0.33 0.66 0.66 1.32 1 2 C1.66 2 2.32 2 3 2 C0.91977941 9.38096204 -1.36218383 16.69196855 -3.68579102 23.99951172 C-4.18985948 25.59242699 -4.68915816 27.18685895 -5.18383789 28.78271484 C-5.90147421 31.09591408 -6.63453141 33.40370561 -7.37109375 35.7109375 C-7.58994736 36.42752533 -7.80880096 37.14411316 -8.0342865 37.88241577 C-8.68139648 39.87646484 -8.68139648 39.87646484 -10 43 C-13.13349732 44.04449911 -13.98968256 43.93423645 -17 43 C-16.01 43 -15.02 43 -14 43 C-13.62488281 41.14181641 -13.62488281 41.14181641 -13.2421875 39.24609375 C-11.93704082 33.38210871 -10.04987155 27.74766896 -8.125 22.0625 C-7.61646484 20.53206055 -7.61646484 20.53206055 -7.09765625 18.97070312 C-4.94379594 12.55416492 -2.58873821 6.25366424 0 0 Z " fill="#5C4C28" transform="translate(202,137)"/>
<path d="M0 0 C8.67806619 0.47334906 15.63355313 4.04429163 22 10 C22 10.66 22 11.32 22 12 C22.99 11.67 23.98 11.34 25 11 C25.495 13.475 25.495 13.475 26 16 C25.01 16.33 24.02 16.66 23 17 C22.45472656 16.46890625 21.90945312 15.9378125 21.34765625 15.390625 C13.37098474 7.91846092 5.77531679 3.8176596 -5.25 3.9375 C-6.32765625 3.94652344 -7.4053125 3.95554688 -8.515625 3.96484375 C-9.74539062 3.98224609 -9.74539062 3.98224609 -11 4 C-11 3.34 -11 2.68 -11 2 C-5.555 1.505 -5.555 1.505 0 1 C0 0.67 0 0.34 0 0 Z " fill="#4B3E21" transform="translate(200,180)"/>
<path d="M0 0 C0.99 0.33 1.98 0.66 3 1 C2.37869771 7.30928097 0.50010374 12.96207569 -1.5625 18.9375 C-2.0565332 20.3925293 -2.0565332 20.3925293 -2.56054688 21.87695312 C-3.3682448 24.25322384 -4.18150948 26.62742969 -5 29 C-5.99 29 -6.98 29 -8 29 C-7.62887897 21.73067895 -6.1086706 15.62433403 -3.4375 8.875 C-3.10814453 8.01390625 -2.77878906 7.1528125 -2.43945312 6.265625 C-1.63712995 4.17260802 -0.82399979 2.08455577 0 0 Z " fill="#524424" transform="translate(176,213)"/>
<path d="M0 0 C0 2.68757867 -0.0636825 4.50990157 -1 7 C-6.67918574 9.78977545 -11.91408803 10.27505969 -18.1875 10.3125 C-18.86433838 10.31797852 -19.54117676 10.32345703 -20.23852539 10.32910156 C-24.51192081 10.26834487 -28.02600818 9.5512783 -32 8 C-29.92446352 7.4465236 -28.15634036 7 -26 7 C-26 6.67 -26 6.34 -26 6 C-24.85402344 5.96261719 -23.70804688 5.92523438 -22.52734375 5.88671875 C-20.99736554 5.82101416 -19.46741903 5.75456841 -17.9375 5.6875 C-17.18533203 5.66494141 -16.43316406 5.64238281 -15.65820312 5.61914062 C-9.67724423 5.33433306 -4.40218566 4.40218566 0 0 Z " fill="#45381E" transform="translate(212,250)"/>
<path d="M0 0 C0.33 0.66 0.66 1.32 1 2 C1.66 2 2.32 2 3 2 C2.35268001 4.34031072 1.68716848 6.67126236 1 9 C0.77054688 9.77988281 0.54109375 10.55976563 0.3046875 11.36328125 C0.05976563 12.15089844 -0.18515625 12.93851563 -0.4375 13.75 C-0.66308594 14.48734375 -0.88867188 15.2246875 -1.12109375 15.984375 C-2.08451614 18.19382367 -3.2034897 19.4186706 -5 21 C-5.76646851 13.18202122 -3.03916589 7.12033152 0 0 Z " fill="#735F33" transform="translate(202,137)"/>
<path d="M0 0 C0 1.66666667 0 3.33333333 0 5 C0.33 5.66 0.66 6.32 1 7 C0.53980469 7.99128906 0.07960937 8.98257813 -0.39453125 10.00390625 C-2.47503566 14.57106932 -2.55556562 18.9805368 -2.6875 23.9375 C-2.72166016 24.81212891 -2.75582031 25.68675781 -2.79101562 26.58789062 C-2.87275657 28.72483254 -2.9380713 30.86239218 -3 33 C-3.33 33 -3.66 33 -4 33 C-4.02505615 32.44014404 -4.0501123 31.88028809 -4.07592773 31.3034668 C-4.19203745 28.76458695 -4.3146958 26.22606447 -4.4375 23.6875 C-4.47681641 22.80642578 -4.51613281 21.92535156 -4.55664062 21.01757812 C-4.59853516 20.17001953 -4.64042969 19.32246094 -4.68359375 18.44921875 C-4.73858032 17.27879028 -4.73858032 17.27879028 -4.79467773 16.0847168 C-4.94125263 13.80670899 -4.94125263 13.80670899 -6 11 C-5.0390625 8.5546875 -5.0390625 8.5546875 -3.625 5.875 C-3.16351563 4.98554688 -2.70203125 4.09609375 -2.2265625 3.1796875 C-1 1 -1 1 0 0 Z " fill="#3A3019" transform="translate(161,196)"/>
<path d="M0 0 C0.3449145 1.33038449 0.67516582 2.66457061 1 4 C1.22558594 4.77730469 1.45117188 5.55460937 1.68359375 6.35546875 C2.09569384 9.79981152 1.23944554 12.06698351 0.0625 15.3125 C-0.31777344 16.38113281 -0.69804687 17.44976562 -1.08984375 18.55078125 C-1.39019531 19.35902344 -1.69054687 20.16726563 -2 21 C-5.0078125 17.3203125 -5.0078125 17.3203125 -4.9375 14.4375 C-3.5940321 9.51145102 -1.82343542 4.76637539 0 0 Z " fill="#4C3F22" transform="translate(163,251)"/>
<path d="M0 0 C2.00993705 2.00993705 2.89940919 3.59211232 4.125 6.125 C4.47820312 6.84945312 4.83140625 7.57390625 5.1953125 8.3203125 C5.46085938 8.87460938 5.72640625 9.42890625 6 10 C6.66 9.67 7.32 9.34 8 9 C9.98 11.97 11.96 14.94 14 18 C12.68 17.67 11.36 17.34 10 17 C9.67 18.32 9.34 19.64 9 21 C9 19.35 9 17.7 9 16 C8.34 16 7.68 16 7 16 C3.3956321 11.16230728 0.32301201 6.13722814 0 0 Z " fill="#473A1F" transform="translate(155,229)"/>
<path d="M0 0 C0.33 0 0.66 0 1 0 C0.1688087 11.26482946 0.1688087 11.26482946 -2 15 C-2.99 15.33 -3.98 15.66 -5 16 C-4.24228029 4.24228029 -4.24228029 4.24228029 0 0 Z " fill="#776234" transform="translate(182,199)"/>
<path d="M0 0 C7.625 0.875 7.625 0.875 11 2 C11 2.66 11 3.32 11 4 C12.0725 3.95875 13.145 3.9175 14.25 3.875 C17.77723487 3.9925745 19.061073 4.34847907 22 6 C14.75972026 6.36201399 7.80478429 5.68435484 1 3 C0.67 2.01 0.34 1.02 0 0 Z " fill="#987D43" transform="translate(175,253)"/>
<path d="M0 0 C0.66 0.66 1.32 1.32 2 2 C4.29361723 2.13927088 6.515091 1.99590954 8.80859375 1.875 C11 2 11 2 14 4 C9.38 4 4.76 4 0 4 C-0.33 4.99 -0.66 5.98 -1 7 C-1.99 6.67 -2.98 6.34 -4 6 C-5.66621616 5.96125079 -7.33394172 5.9549714 -9 6 C-6.23776722 3.23776722 -3.79293383 3.42143709 0 3 C0 2.01 0 1.02 0 0 Z " fill="#B69650" transform="translate(189,178)"/>
<path d="M0 0 C1.37432457 3.81756824 0.67975039 7.07255329 0 11 C-3.13349732 12.04449911 -3.98968256 11.93423645 -7 11 C-6.01 11 -5.02 11 -4 11 C-3.87882813 10.37351563 -3.75765625 9.74703125 -3.6328125 9.1015625 C-3.38144531 7.87566406 -3.38144531 7.87566406 -3.125 6.625 C-2.96257812 5.81289062 -2.80015625 5.00078125 -2.6328125 4.1640625 C-2 2 -2 2 0 0 Z " fill="#756133" transform="translate(192,169)"/>
<path d="M0 0 C0.99 0.66 1.98 1.32 3 2 C3 2.66 3 3.32 3 4 C3.99 3.67 4.98 3.34 6 3 C6.33 4.65 6.66 6.3 7 8 C6.01 8.33 5.02 8.66 4 9 C2.02 6.69 0.04 4.38 -2 2 C-1.34 2 -0.68 2 0 2 C0 1.34 0 0.68 0 0 Z " fill="#66542D" transform="translate(219,188)"/>
<path d="M0 0 C1.32 0.33 2.64 0.66 4 1 C3.67 1.99 3.34 2.98 3 4 C2.67 4 2.34 4 2 4 C1.67 5.98 1.34 7.96 1 10 C0.34 10 -0.32 10 -1 10 C-1.33 10.99 -1.66 11.98 -2 13 C-1.85769192 11.58297487 -1.71099254 10.1663904 -1.5625 8.75 C-1.48128906 7.96109375 -1.40007812 7.1721875 -1.31640625 6.359375 C-1.02365007 4.17635361 -0.57935581 2.1226818 0 0 Z " fill="#A58849" transform="translate(165,246)"/>
<path d="M0 0 C0.33 0.99 0.66 1.98 1 3 C0.01 4.485 0.01 4.485 -1 6 C-1.66 6 -2.32 6 -3 6 C-3.28875 6.639375 -3.5775 7.27875 -3.875 7.9375 C-5 10 -5 10 -7 11 C-6.60246179 9.53633658 -6.18118616 8.0791065 -5.75 6.625 C-5.51796875 5.81289062 -5.2859375 5.00078125 -5.046875 4.1640625 C-3.7785108 1.54214546 -2.67576692 1.00617682 0 0 Z " fill="#8C733E" transform="translate(166,192)"/>
<path d="M0 0 C-0.99 0.33 -1.98 0.66 -3 1 C-2.67 1.66 -2.34 2.32 -2 3 C-5.3125 4.125 -5.3125 4.125 -9 5 C-9.99 4.34 -10.98 3.68 -12 3 C-10.75823305 2.29773859 -9.50614401 1.61370891 -8.25 0.9375 C-7.20585937 0.36322266 -7.20585937 0.36322266 -6.140625 -0.22265625 C-3.63859372 -1.1312406 -2.4667645 -0.88336837 0 0 Z " fill="#524324" transform="translate(185,182)"/>
<path d="M0 0 C0.3449145 1.33038449 0.67516582 2.66457061 1 4 C1.226875 4.804375 1.45375 5.60875 1.6875 6.4375 C2.064247 9.52682539 1.34306673 11.23486261 0 14 C-0.66 14 -1.32 14 -2 14 C-1.85923685 12.0412957 -1.7122324 10.08303907 -1.5625 8.125 C-1.48128906 7.03445313 -1.40007812 5.94390625 -1.31640625 4.8203125 C-1 2 -1 2 0 0 Z " fill="#5B4B28" transform="translate(163,251)"/>
<path d="M0 0 C1.03139845 3.75429036 1.21296253 7.095687 1 11 C0.01 12.485 0.01 12.485 -1 14 C-2.60279613 11.38491158 -3.15622322 9.68190867 -2.46484375 6.6640625 C-1.70194637 4.41440232 -0.89207691 2.20141561 0 0 Z " fill="#564726" transform="translate(184,189)"/>
<path d="M0 0 C0.66 0.33 1.32 0.66 2 1 C1.74337755 2.44010481 1.46909179 3.8770687 1.1875 5.3125 C1.03667969 6.11300781 0.88585937 6.91351563 0.73046875 7.73828125 C-0.07572236 10.23445587 -1.02052002 11.32422106 -3 13 C-2.45144652 8.428721 -1.58255197 4.32564205 0 0 Z " fill="#AE904D" transform="translate(176,216)"/>
<path d="M0 0 C0.99 0.33 1.98 0.66 3 1 C3.33 2.65 3.66 4.3 4 6 C3.01 6.495 3.01 6.495 2 7 C0.5393715 4.35261084 0 3.10551666 0 0 Z " fill="#7B6636" transform="translate(158,233)"/>
<path d="M0 0 C2.475 0.495 2.475 0.495 5 1 C5.33 1.99 5.66 2.98 6 4 C4.35 3.67 2.7 3.34 1 3 C0.67 2.01 0.34 1.02 0 0 Z " fill="#866E3B" transform="translate(213,186)"/>
</svg>
