<?xml version="1.0" encoding="UTF-8"?>
<svg version="1.1" xmlns="http://www.w3.org/2000/svg" width="500" height="500">
<path d="M0 0 C165 0 330 0 500 0 C500 165 500 330 500 500 C335 500 170 500 0 500 C0 335 0 170 0 0 Z " fill="#FEFEFE" transform="translate(0,0)"/>
<path d="M0 0 C12.34403684 -0.11610149 24.68794273 -0.20482091 37.03241539 -0.25906086 C42.76513397 -0.28509987 48.49747763 -0.32039421 54.22998047 -0.37719727 C59.76727585 -0.43171959 65.30421171 -0.46146334 70.84175491 -0.47438622 C72.94919108 -0.4835898 75.05660867 -0.50156217 77.16389084 -0.52865028 C98.2646131 -0.78898208 98.2646131 -0.78898208 106 5 C106.6643808 5.4564238 107.3287616 5.9128476 108.01327515 6.38310242 C113.87313414 10.57337165 117.8529777 17.5787504 119.64453125 24.484375 C121.08749609 34.69612617 120.25823914 43.31138709 113.9765625 51.703125 C107.36730554 59.41768432 102.65601783 62.54563235 92.76171875 64.59765625 C91.49674561 64.86199463 90.23177246 65.12633301 88.9284668 65.39868164 C87.96207275 65.5971167 86.99567871 65.79555176 86 66 C88.06058696 73.030488 90.1378625 80.05583021 92.2350769 87.07548523 C93.20899936 90.3371333 94.17764862 93.60013518 95.13330078 96.8671875 C102.78911297 122.96700211 111.3128277 148.48827078 136.4375 162.66015625 C149.20326167 169.33493712 160.57317794 172.38922943 175 173 C175.33 173.99 175.66 174.98 176 176 C152.51975751 177.13614077 131.27763265 168.81653066 113.625 153.5625 C98.72182534 139.4385763 91.8669724 123.17783194 86 104 C85.29506599 101.73203067 84.58747181 99.46489901 83.87998962 97.19772339 C82.60058074 93.09228248 81.3310024 88.98382157 80.0625 84.875 C79.81108246 84.06270935 79.55966492 83.2504187 79.30062866 82.41351318 C78.58242324 80.08698526 77.87032126 77.75868061 77.16015625 75.4296875 C76.94177094 74.72432861 76.72338562 74.01896973 76.49838257 73.29223633 C75.62651764 70.41332068 75 68.02739716 75 65 C69.06 65 63.12 65 57 65 C57 64.67 57 64.34 57 64 C57.62865967 63.98541748 58.25731934 63.97083496 58.9050293 63.95581055 C83.54034335 63.78903583 83.54034335 63.78903583 103.75 51.25 C109.04698978 43.59879254 111.09006404 36.27917012 110 27 C108.54580796 19.0928308 104.32886667 12.14339965 97.7890625 7.39453125 C91.18455213 3.55129228 84.72625576 1.7439461 77.05493164 1.77294922 C76.40042023 1.77265717 75.74590881 1.77236511 75.07156372 1.77206421 C72.93428724 1.77344406 70.7973709 1.78894064 68.66015625 1.8046875 C67.16800629 1.80842243 65.67585386 1.81126714 64.18370056 1.81326294 C60.27596137 1.82086161 56.36837328 1.84047726 52.46069336 1.8626709 C48.46535282 1.88321093 44.46998762 1.89228202 40.47460938 1.90234375 C32.64967106 1.92372711 24.82485678 1.95781697 17 2 C17.54160767 2.4215184 18.08321533 2.8430368 18.64123535 3.27732849 C23.43517972 7.1986731 26.10790028 10.20551581 28.09375 16.22265625 C28.44536194 17.25193993 28.44536194 17.25193993 28.80407715 18.30201721 C29.30230643 19.77126062 29.78910228 21.24442447 30.26513672 22.7210083 C31.00398006 25.01234316 31.77302556 27.29142838 32.55078125 29.56982422 C33.93484418 33.6418673 35.28896349 37.72317781 36.63400269 41.80825806 C38.15605688 46.42934483 39.68931157 51.046712 41.22265625 55.6640625 C41.53691055 56.61076309 41.85116486 57.55746368 42.17494202 58.53285217 C45.92909133 69.82338315 49.78980258 81.07728701 53.66455078 92.3269043 C56.840128 101.56508376 59.93146379 110.82501217 62.93359375 120.12109375 C63.92617062 123.1735369 64.91980601 126.2256339 65.91360474 129.27767944 C66.54443419 131.22799834 67.16921723 133.18028546 67.787323 135.13467407 C73.93768667 154.57810687 81.30538145 169.48904083 99.48828125 180.23828125 C107.46917353 184.24204367 116.12530771 186.29002462 125 187 C125 187.33 125 187.66 125 188 C108.06468701 188.87295428 95.04935373 186.28527773 81 176 C79.948125 175.236875 78.89625 174.47375 77.8125 173.6875 C65.4172491 161.84314914 59.92647687 146.74864186 54.800354 130.7940979 C54.04312804 128.4397697 53.27307736 126.08997366 52.49951172 123.7409668 C51.46863629 120.60889008 50.44088972 117.47583312 49.41748047 114.34130859 C49.17761414 113.60668396 48.9377478 112.87205933 48.69061279 112.11517334 C48.34875946 111.06816254 48.34875946 111.06816254 48 110 C46.56110508 105.59735976 45.10442541 101.20167126 43.625 96.8125 C43.34019775 95.93078125 43.05539551 95.0490625 42.76196289 94.140625 C39.19530883 83.64092125 33.09319662 74.92822653 23.27734375 69.4921875 C15.92471575 66.10164758 9.05217932 65.14286125 1 65 C0.75072754 66.24128662 0.50145508 67.48257324 0.24462891 68.76147461 C-1.05473592 74.59354548 -2.96614198 80.17392639 -4.9140625 85.81640625 C-5.28856537 86.91347397 -5.66306824 88.01054169 -6.04891968 89.14085388 C-7.23646226 92.61628944 -8.43062072 96.08940879 -9.625 99.5625 C-10.43533525 101.9301882 -11.2452356 104.29802529 -12.0546875 106.66601562 C-14.03143026 112.44574244 -16.01359786 118.22358632 -18 124 C-18.66 124 -19.32 124 -20 124 C-18.60122559 117.09557158 -16.63608216 110.56536852 -14.33984375 103.91015625 C-13.9899086 102.88442001 -13.63997345 101.85868378 -13.2794342 100.80186462 C-12.54456175 98.65059263 -11.80742077 96.50009435 -11.06811523 94.3503418 C-9.93308832 91.04967078 -8.80481953 87.74674975 -7.67773438 84.44335938 C-6.96132525 82.34882567 -6.24454176 80.25441996 -5.52734375 78.16015625 C-5.18879868 77.17064468 -4.8502536 76.18113312 -4.50144958 75.16163635 C-4.03074791 73.79397377 -4.03074791 73.79397377 -3.55053711 72.39868164 C-3.27455185 71.59531876 -2.99856659 70.79195587 -2.71421814 69.96424866 C-2 68 -2 68 -1 66 C-11.69846054 69.34326892 -20.45111977 73.93188473 -26.15625 84.05078125 C-30.98624569 93.48652283 -31.93786516 105.73608986 -28.9375 116.0625 C-24.82788814 125.8564348 -16.87093834 132.89255496 -7.4375 137.375 C1.18153776 140.55393522 11.79513728 140.38066103 20.3203125 136.90625 C22.8011623 135.56774499 23.9661948 134.65835623 25 132 C24.80964221 128.51010715 24.30530228 125.71835831 22.9375 122.5 C21.66998248 119.11995329 21.61602677 116.58375014 22 113 C23.79562405 110.24670979 25.05254922 108.47372539 28 107 C32.45827127 106.48558408 34.50146391 106.69533905 38.375 109.0625 C41.59356474 112.66422721 42.24110853 114.1778294 42 119 C38.98357571 127.67417349 31.90325647 134.12555117 23.9375 138.375 C14.08454109 142.74121317 3.35719398 143.81246903 -6.9375 140.25 C-11.01847635 138.58077969 -14.44081092 136.58041208 -18 134 C-18.99 133.67 -19.98 133.34 -21 133 C-22.03580329 135.89124223 -23.0538502 138.78679314 -24.0625 141.6875 C-24.35705078 142.50412109 -24.65160156 143.32074219 -24.95507812 144.16210938 C-27.07617129 150.01491782 -27.07617129 150.01491782 -26 156 C-25.34 156.33 -24.68 156.66 -24 157 C-24 157.66 -24 158.32 -24 159 C-28.29 159 -32.58 159 -37 159 C-37 158.34 -37 157.68 -37 157 C-36.24074219 156.82984375 -35.48148438 156.6596875 -34.69921875 156.484375 C-30.82757976 154.3552537 -30.11786078 151.24118528 -28.8125 147.25 C-28.56564453 146.54617188 -28.31878906 145.84234375 -28.06445312 145.1171875 C-27.35598975 143.08436991 -26.67560412 141.04393245 -26 139 C-25.61972656 137.89269531 -25.23945313 136.78539062 -24.84765625 135.64453125 C-23.93632904 132.80135835 -23.54534925 130.95522987 -24 128 C-25.32854251 126.32951194 -26.66251898 124.66334003 -28 123 C-34.04283489 112.90210486 -34.80112197 101.29575588 -32.3359375 89.94140625 C-28.46858996 79.16327679 -20.55407177 71.9597517 -11 66.1875 C-7.26522758 64.70915258 -3.99657666 64.34453247 0 64 C0.15130371 63.38648682 0.30260742 62.77297363 0.45849609 62.14086914 C1.92083953 56.48554308 3.65552336 50.97990589 5.6640625 45.49609375 C5.90308289 44.84146149 6.14210327 44.18682922 6.3883667 43.51235962 C7.38091314 40.80351954 8.37826404 38.09664423 9.38964844 35.39477539 C13.94228767 24.0236508 13.94228767 24.0236508 15 12 C13.33198474 8.40213695 11.29286968 5.91752042 8.0625 3.625 C5.40140913 2.81860883 2.75234886 2.3753203 0 2 C0 1.34 0 0.68 0 0 Z " fill="#CFAC5F" transform="translate(188,117)"/>
<path d="M0 0 C8.01226242 0.17342559 15.05360855 4.2340386 20.8984375 9.56640625 C27.76112391 17.58403257 29.9170124 26.00944744 29.765625 36.31640625 C28.87190037 46.81767069 22.64475362 54.18096906 14.8515625 60.84765625 C11.00950245 63.41228009 6.73554541 64.1073089 2.26171875 65.03515625 C0.99674561 65.29949463 -0.26822754 65.56383301 -1.5715332 65.83618164 C-2.53792725 66.0346167 -3.50432129 66.23305176 -4.5 66.4375 C-2.43941304 73.467988 -0.3621375 80.49333021 1.7350769 87.51298523 C2.70899936 90.7746333 3.67764862 94.03763518 4.63330078 97.3046875 C12.28911297 123.40450211 20.8128277 148.92577078 45.9375 163.09765625 C58.70326167 169.77243712 70.07317794 172.82672943 84.5 173.4375 C84.83 174.4275 85.16 175.4175 85.5 176.4375 C62.01975751 177.57364077 40.77763265 169.25403066 23.125 154 C8.22182534 139.8760763 1.3669724 123.61533194 -4.5 104.4375 C-5.20493401 102.16953067 -5.91252819 99.90239901 -6.62001038 97.63522339 C-7.89941926 93.52978248 -9.1689976 89.42132157 -10.4375 85.3125 C-10.68891754 84.50020935 -10.94033508 83.6879187 -11.19937134 82.85101318 C-11.91757676 80.52448526 -12.62967874 78.19618061 -13.33984375 75.8671875 C-13.66742172 74.80914917 -13.66742172 74.80914917 -14.00161743 73.72973633 C-14.87348236 70.85082068 -15.5 68.46489716 -15.5 65.4375 C-21.44 65.4375 -27.38 65.4375 -33.5 65.4375 C-33.5 65.1075 -33.5 64.7775 -33.5 64.4375 C-32.87134033 64.42291748 -32.24268066 64.40833496 -31.5949707 64.39331055 C-6.95965665 64.22653583 -6.95965665 64.22653583 13.25 51.6875 C18.54698978 44.03629254 20.59006404 36.71667012 19.5 27.4375 C18.04580796 19.5303308 13.82886667 12.58089965 7.2890625 7.83203125 C2.86433544 5.25723274 -1.5266543 3.60147452 -6.5 2.4375 C-4.08183552 0.01933552 -3.33173174 0.08961937 0 0 Z " fill="#CFAC60" transform="translate(278.5,116.5625)"/>
<path d="M0 0 C1.32 0.33 2.64 0.66 4 1 C5.15760273 3.47040396 6.00608958 5.71681446 6.8046875 8.3046875 C7.04951874 9.05201141 7.29434998 9.79933533 7.54660034 10.56930542 C8.33857241 12.99973199 9.10693404 15.43692453 9.875 17.875 C10.40906718 19.52942867 10.94454831 21.18340156 11.48144531 22.83691406 C12.77807961 26.84328823 14.05618319 30.85523228 15.32580566 34.87023926 C16.24946964 37.78806749 17.18356529 40.70253276 18.1171875 43.6171875 C19.43202747 47.73860504 20.72619532 51.86572166 22 56 C20.515 56.495 20.515 56.495 19 57 C18.62230469 56.55269531 18.24460937 56.10539062 17.85546875 55.64453125 C10.80739444 47.90320373 1.6561139 44.15438413 -8.6875 43.4375 C-9.86699219 43.35371094 -11.04648438 43.26992187 -12.26171875 43.18359375 C-13.61716797 43.09271484 -13.61716797 43.09271484 -15 43 C-15.24927246 44.24128662 -15.49854492 45.48257324 -15.75537109 46.76147461 C-17.05473592 52.59354548 -18.96614198 58.17392639 -20.9140625 63.81640625 C-21.28856537 64.91347397 -21.66306824 66.01054169 -22.04891968 67.14085388 C-23.23646226 70.61628944 -24.43062072 74.08940879 -25.625 77.5625 C-26.43533525 79.9301882 -27.2452356 82.29802529 -28.0546875 84.66601562 C-30.03143026 90.44574244 -32.01359786 96.22358632 -34 102 C-34.66 102 -35.32 102 -36 102 C-34.60122559 95.09557158 -32.63608216 88.56536852 -30.33984375 81.91015625 C-29.9899086 80.88442001 -29.63997345 79.85868378 -29.2794342 78.80186462 C-28.54456175 76.65059263 -27.80742077 74.50009435 -27.06811523 72.3503418 C-25.93308832 69.04967078 -24.80481953 65.74674975 -23.67773438 62.44335938 C-22.96132525 60.34882567 -22.24454176 58.25441996 -21.52734375 56.16015625 C-21.18879868 55.17064468 -20.8502536 54.18113312 -20.50144958 53.16163635 C-20.18764847 52.2498613 -19.87384735 51.33808624 -19.55053711 50.39868164 C-19.27455185 49.59531876 -18.99856659 48.79195587 -18.71421814 47.96424866 C-18 46 -18 46 -17 44 C-27.69846054 47.34326892 -36.45111977 51.93188473 -42.15625 62.05078125 C-46.98624569 71.48652283 -47.93786516 83.73608986 -44.9375 94.0625 C-40.82788814 103.8564348 -32.87093834 110.89255496 -23.4375 115.375 C-14.81846224 118.55393522 -4.20486272 118.38066103 4.3203125 114.90625 C6.8011623 113.56774499 7.9661948 112.65835623 9 110 C8.80964221 106.51010715 8.30530228 103.71835831 6.9375 100.5 C5.66998248 97.11995329 5.61602677 94.58375014 6 91 C7.79562405 88.24670979 9.05254922 86.47372539 12 85 C16.45827127 84.48558408 18.50146391 84.69533905 22.375 87.0625 C25.59356474 90.66422721 26.24110853 92.1778294 26 97 C22.98357571 105.67417349 15.90325647 112.12555117 7.9375 116.375 C-1.91545891 120.74121317 -12.64280602 121.81246903 -22.9375 118.25 C-27.01847635 116.58077969 -30.44081092 114.58041208 -34 112 C-35.485 111.505 -35.485 111.505 -37 111 C-38.03580329 113.89124223 -39.0538502 116.78679314 -40.0625 119.6875 C-40.35705078 120.50412109 -40.65160156 121.32074219 -40.95507812 122.16210938 C-43.07617129 128.01491782 -43.07617129 128.01491782 -42 134 C-41.34 134.33 -40.68 134.66 -40 135 C-40 135.66 -40 136.32 -40 137 C-44.29 137 -48.58 137 -53 137 C-53 136.34 -53 135.68 -53 135 C-52.24074219 134.82984375 -51.48148438 134.6596875 -50.69921875 134.484375 C-46.82757976 132.3552537 -46.11786078 129.24118528 -44.8125 125.25 C-44.56564453 124.54617188 -44.31878906 123.84234375 -44.06445312 123.1171875 C-43.35598975 121.08436991 -42.67560412 119.04393245 -42 117 C-41.61972656 115.89269531 -41.23945313 114.78539062 -40.84765625 113.64453125 C-39.93632904 110.80135835 -39.54534925 108.95522987 -40 106 C-41.32854251 104.32951194 -42.66251898 102.66334003 -44 101 C-50.04283489 90.90210486 -50.80112197 79.29575588 -48.3359375 67.94140625 C-44.46858996 57.16327679 -36.55407177 49.9597517 -27 44.1875 C-23.26522758 42.70915258 -19.99657666 42.34453247 -16 42 C-15.81824219 41.29875 -15.63648438 40.5975 -15.44921875 39.875 C-13.92000933 34.10321471 -12.19945637 28.55100893 -10 23 C-9.34 23 -8.68 23 -8 23 C-5.36 15.41 -2.72 7.82 0 0 Z " fill="#D9BA76" transform="translate(204,139)"/>
<path d="M0 0 C1.82250977 0.03686523 1.82250977 0.03686523 4 1 C5.16852273 3.5045846 6.02992548 5.78831342 6.83984375 8.41015625 C7.08867813 9.16985214 7.33751251 9.92954803 7.59388733 10.71226501 C8.3906736 13.15761227 9.16421634 15.60963171 9.9375 18.0625 C10.45358291 19.65738565 10.97114615 21.25179309 11.49023438 22.84570312 C12.7669971 26.77994494 14.0170181 30.72210275 15.25946045 34.66729736 C16.0032031 37.01008978 16.76359171 39.34692757 17.52783203 41.68310547 C17.99913548 43.14156536 18.47033195 44.60005983 18.94140625 46.05859375 C19.16489243 46.73181168 19.3883786 47.4050296 19.61863708 48.09864807 C21.11319037 52.77361927 21.11319037 52.77361927 20 55 C19.5153125 54.54109375 19.030625 54.0821875 18.53125 53.609375 C8.99943262 44.88409602 -0.33075696 42.11442416 -13 41 C-12.34480175 36.23037887 -11.07325104 31.80967505 -9.53125 27.265625 C-9.29088013 26.54638855 -9.05051025 25.8271521 -8.80285645 25.08612061 C-8.29727807 23.57607345 -7.7895519 22.06674385 -7.27978516 20.55810547 C-6.49821585 18.24471904 -5.72316188 15.92922888 -4.94921875 13.61328125 C-4.45610461 12.14310319 -3.9626278 10.6730467 -3.46875 9.203125 C-3.12028015 8.16409027 -3.12028015 8.16409027 -2.76477051 7.10406494 C-1.11727972 2.23455944 -1.11727972 2.23455944 0 0 Z " fill="#FDFCFA" transform="translate(204,139)"/>
<path d="M0 0 C3.88865684 2.3764014 5.61769816 3.95370024 7.1875 8.25 C6.83038135 15.39237309 3.07205905 20.30293683 -2.0625 25.0625 C-5.15864834 27.76626519 -5.64196366 28 -10 28 C-9.938125 26.824375 -9.87625 25.64875 -9.8125 24.4375 C-9.78934932 20.05430526 -11.24965275 17.01121245 -13 13 C-13.52124345 8.68112572 -13.51656014 6.79205889 -11.125 3.125 C-7.54896931 -0.45103069 -5.00281714 -0.50028171 0 0 Z " fill="#CFAB5D" transform="translate(223,224)"/>
<path d="M0 0 C2.64 0 5.28 0 8 0 C7.34 0.66 6.68 1.32 6 2 C5.60235737 3.98821313 5.26224651 5.98944339 5 8 C7.97 8 10.94 8 14 8 C13.55296014 3.52116304 13.55296014 3.52116304 11 0 C13.64 0 16.28 0 19 0 C18.01 0.495 18.01 0.495 17 1 C17 5.95 17 10.9 17 16 C17.66 16.33 18.32 16.66 19 17 C16.36 17 13.72 17 11 17 C11.66 16.34 12.32 15.68 13 15 C13.39764263 13.01178687 13.73775349 11.01055661 14 9 C11.03 9 8.06 9 5 9 C5 11.31 5 13.62 5 16 C5.66 16.33 6.32 16.66 7 17 C4.69 17 2.38 17 0 17 C0.66 16.67 1.32 16.34 2 16 C2 11.05 2 6.1 2 1 C1.34 0.67 0.68 0.34 0 0 Z " fill="#D5B469" transform="translate(248,310)"/>
<path d="M0 0 C1.7492214 -0.08142927 3.49954542 -0.13938541 5.25 -0.1875 C6.22453125 -0.22230469 7.1990625 -0.25710938 8.203125 -0.29296875 C11.37468742 0.03924798 12.67040307 0.88672279 15 3 C14.67 4.32 14.34 5.64 14 7 C12.68 7.33 11.36 7.66 10 8 C10.33 6.35 10.66 4.7 11 3 C9.35 2.67 7.7 2.34 6 2 C5.67 3.98 5.34 5.96 5 8 C5.73605469 8.0928125 6.47210938 8.185625 7.23046875 8.28125 C10.42713594 9.11085051 11.89783832 10.28087589 14.3125 12.5 C15.00988281 13.1290625 15.70726562 13.758125 16.42578125 14.40625 C18 16 18 16 18 17 C15.875 17.4375 15.875 17.4375 13 17 C11.24583979 15.3273289 9.80473715 13.55236118 8.33203125 11.62890625 C7.07775666 9.86833905 7.07775666 9.86833905 5 9 C5.44703986 13.47883696 5.44703986 13.47883696 8 17 C5.36 17 2.72 17 0 17 C0.66 16.67 1.32 16.34 2 16 C2 11.05 2 6.1 2 1 C1.34 0.67 0.68 0.34 0 0 Z " fill="#DFC790" transform="translate(201,310)"/>
<path d="M0 0 C1.93681161 -0.08107583 3.8745934 -0.13922475 5.8125 -0.1875 C6.89144531 -0.22230469 7.97039062 -0.25710938 9.08203125 -0.29296875 C12 0 12 0 13.90625 1.375 C15 3 15 3 14.6875 5.1875 C14.3471875 6.0846875 14.3471875 6.0846875 14 7 C12.68 7.33 11.36 7.66 10 8 C10.33 6.35 10.66 4.7 11 3 C9.35 2.67 7.7 2.34 6 2 C5.67 3.98 5.34 5.96 5 8 C5.73605469 8.0928125 6.47210938 8.185625 7.23046875 8.28125 C10.42713594 9.11085051 11.89783832 10.28087589 14.3125 12.5 C15.00988281 13.1290625 15.70726562 13.758125 16.42578125 14.40625 C18 16 18 16 18 17 C15.875 17.4375 15.875 17.4375 13 17 C11.24583979 15.3273289 9.80473715 13.55236118 8.33203125 11.62890625 C7.07775666 9.86833905 7.07775666 9.86833905 5 9 C5.44703986 13.47883696 5.44703986 13.47883696 8 17 C5.69 17 3.38 17 1 17 C1.33 16.34 1.66 15.68 2 15 C2.12244289 12.83589316 2.17551142 10.66753477 2.1875 8.5 C2.20167969 7.3346875 2.21585937 6.169375 2.23046875 4.96875 C2.31443714 1.88093282 2.31443714 1.88093282 0 0 Z " fill="#DABA71" transform="translate(298,310)"/>
<path d="M0 0 C1.65 0 3.3 0 5 0 C5.42152344 1.05960937 5.84304687 2.11921875 6.27734375 3.2109375 C6.83068362 4.59897649 7.38407153 5.98699633 7.9375 7.375 C8.21529297 8.07367188 8.49308594 8.77234375 8.77929688 9.4921875 C10.28466196 13.29232246 10.28466196 13.29232246 12 17 C10.02 17 8.04 17 6 17 C6 14.69 6 12.38 6 10 C3.69 10 1.38 10 -1 10 C-1.33 11.98 -1.66 13.96 -2 16 C-1.34 16.33 -0.68 16.66 0 17 C-1.98 17 -3.96 17 -6 17 C-5.34 16.67 -4.68 16.34 -4 16 C-1.98595064 10.88296551 -0.7163892 5.44455793 0 0 Z " fill="#E2C37D" transform="translate(183,310)"/>
<path d="M0 0 C0.94359375 0.29003906 0.94359375 0.29003906 1.90625 0.5859375 C4.59994343 1.40540448 7.29933251 2.20384947 10 3 C11.2375 3.37125 12.475 3.7425 13.75 4.125 C19.69524578 5.59902788 25.90730533 5.67482809 32 6 C32.495 7.485 32.495 7.485 33 9 C26.45417801 9.31673332 20.32087898 8.73530328 13.875 7.6875 C13.1236377 7.56979248 12.37227539 7.45208496 11.59814453 7.33081055 C6.43890679 6.44835393 1.85229683 4.96402491 -3 3 C-2.01 2.01 -1.02 1.02 0 0 Z " fill="#D5B46A" transform="translate(331,284)"/>
<path d="M0 0 C2.64 0 5.28 0 8 0 C7.01 0.495 7.01 0.495 6 1 C6 5.62 6 10.24 6 15 C11.47825081 15.4472136 11.47825081 15.4472136 14 14 C14.02694851 12.04174127 14.04637218 10.08337774 14.0625 8.125 C14.07410156 7.03445313 14.08570313 5.94390625 14.09765625 4.8203125 C14.19744303 2.04822454 14.19744303 2.04822454 13 0 C14.98 0 16.96 0 19 0 C18.34 0.66 17.68 1.32 17 2 C16.65223309 5.34560573 16.5566652 8.67015043 16.44140625 12.03125 C16.29574219 13.0109375 16.15007812 13.990625 16 15 C12.30513897 17.46324069 10.36706908 17.38991688 6 17 C4.31640625 15.859375 4.31640625 15.859375 3 14 C2.55859375 11.15234375 2.55859375 11.15234375 2.4375 7.9375 C2.47950058 3.44488105 2.47950058 3.44488105 0 0 Z " fill="#DBBD7A" transform="translate(273,310)"/>
<path d="M0 0 C5.28 0 10.56 0 16 0 C15.67 0.99 15.34 1.98 15 3 C13.35 2.67 11.7 2.34 10 2 C9.94613371 4.12472576 9.90726929 6.24983652 9.875 8.375 C9.85179687 9.55835938 9.82859375 10.74171875 9.8046875 11.9609375 C9.67133771 15.11153817 9.67133771 15.11153817 12 17 C9.36 17 6.72 17 4 17 C4.66 16.34 5.32 15.68 6 15 C6.24360073 11.87185486 6.24360073 11.87185486 6.125 8.375 C6.09792969 6.59222656 6.09792969 6.59222656 6.0703125 4.7734375 C6.04710937 3.85820312 6.02390625 2.94296875 6 2 C4.68 2 3.36 2 2 2 C1.34 2.66 0.68 3.32 0 4 C0 2.68 0 1.36 0 0 Z " fill="#D9B870" transform="translate(225,310)"/>
<path d="M0 0 C0.33 0 0.66 0 1 0 C1.10957031 0.90621094 1.21914062 1.81242188 1.33203125 2.74609375 C2.92253119 14.9657884 4.9788187 22.57511197 13 32 C13.804375 33.010625 14.60875 34.02125 15.4375 35.0625 C16.2109375 36.0215625 16.2109375 36.0215625 17 37 C11.47808765 35.6501992 11.47808765 35.6501992 9.4375 32.875 C8.963125 31.92625 8.48875 30.9775 8 30 C7.1728417 28.72513885 6.3389474 27.4546342 5.5 26.1875 C0.08432231 17.36861699 -0.3937959 10.38454371 0 0 Z " fill="#D7B771" transform="translate(155,214)"/>
<path d="M0 0 C0.99 0.33 1.98 0.66 3 1 C2.61328125 1.4125 2.2265625 1.825 1.828125 2.25 C-4.704085 9.49363882 -7.93468206 16.41147786 -8.5625 26.1875 C-8.64628906 27.45980469 -8.73007813 28.73210937 -8.81640625 30.04296875 C-8.87699219 31.01878906 -8.93757812 31.99460938 -9 33 C-9.33 33 -9.66 33 -10 33 C-11.59962745 20.93324507 -10.67107372 13.57367968 -3.25 3.875 C-2.17830732 2.57365889 -1.09915464 1.2782304 0 0 Z " fill="#DABF81" transform="translate(166,191)"/>
<path d="M0 0 C0.33 1.32 0.66 2.64 1 4 C1.73605469 4.0928125 2.47210938 4.185625 3.23046875 4.28125 C6.42713594 5.11085051 7.89783832 6.28087589 10.3125 8.5 C11.00988281 9.1290625 11.70726562 9.758125 12.42578125 10.40625 C14 12 14 12 14 13 C11.875 13.4375 11.875 13.4375 9 13 C7.24583979 11.3273289 5.80473715 9.55236118 4.33203125 7.62890625 C3.07775666 5.86833905 3.07775666 5.86833905 1 5 C1 7.31 1 9.62 1 12 C0.34 12 -0.32 12 -1 12 C-1.02687279 10.18757948 -1.04633715 8.37504767 -1.0625 6.5625 C-1.07410156 5.55316406 -1.08570313 4.54382813 -1.09765625 3.50390625 C-1 1 -1 1 0 0 Z " fill="#DBBD7C" transform="translate(205,314)"/>
<path d="M0 0 C1.65 0 3.3 0 5 0 C5 1.65 5 3.3 5 5 C4.01 5 3.02 5 2 5 C1.67 5.99 1.34 6.98 1 8 C1.99 8.66 2.98 9.32 4 10 C2.35 10 0.7 10 -1 10 C-1.33 11.98 -1.66 13.96 -2 16 C-1.34 16.33 -0.68 16.66 0 17 C-1.98 17 -3.96 17 -6 17 C-5.34 16.67 -4.68 16.34 -4 16 C-1.98595064 10.88296551 -0.7163892 5.44455793 0 0 Z " fill="#DABE7F" transform="translate(183,310)"/>
<path d="M0 0 C1.67542976 0.28604898 3.34385343 0.61781233 5 1 C5.93065133 3.60582371 6.14917407 4.64198224 5.0625 7.25 C4.711875 7.8275 4.36125 8.405 4 9 C1.525 8.01 1.525 8.01 -1 7 C-1.04254356 5.00045254 -1.04080783 2.99958364 -1 1 C-0.67 0.67 -0.34 0.34 0 0 Z " fill="#FAF6EE" transform="translate(304,311)"/>
<path d="M0 0 C1.67542976 0.28604898 3.34385343 0.61781233 5 1 C5.93065133 3.60582371 6.14917407 4.64198224 5.0625 7.25 C4.711875 7.8275 4.36125 8.405 4 9 C1.525 8.01 1.525 8.01 -1 7 C-1.04254356 5.00045254 -1.04080783 2.99958364 -1 1 C-0.67 0.67 -0.34 0.34 0 0 Z " fill="#FAF6EE" transform="translate(207,311)"/>
<path d="M0 0 C4.95 0.33 9.9 0.66 15 1 C15.33 1.99 15.66 2.98 16 4 C9.8894576 4.11269443 4.04829486 3.89604368 -2 3 C-1.34 2.67 -0.68 2.34 0 2 C0 1.34 0 0.68 0 0 Z " fill="#E3C78A" transform="translate(348,289)"/>
<path d="M0 0 C1.32 0.66 2.64 1.32 4 2 C-2.03154894 5.41408431 -7.99143763 7.71704562 -15 8 C-17.328125 7.0390625 -17.328125 7.0390625 -19 6 C-17.69675781 5.85304688 -17.69675781 5.85304688 -16.3671875 5.703125 C-7.46057877 4.57863906 -7.46057877 4.57863906 0 0 Z " fill="#DCBE7D" transform="translate(212,251)"/>
<path d="M0 0 C0.33 0 0.66 0 1 0 C1 4.62 1 9.24 1 14 C1.66 14.33 2.32 14.66 3 15 C0.36 15 -2.28 15 -5 15 C-4.34 14.34 -3.68 13.68 -3 13 C-2.60235737 11.01178687 -2.26224651 9.01055661 -2 7 C-1.67 7 -1.34 7 -1 7 C-0.67 4.69 -0.34 2.38 0 0 Z " fill="#E6CE97" transform="translate(264,312)"/>
<path d="M0 0 C2.64 0 5.28 0 8 0 C7.34 0.66 6.68 1.32 6 2 C5.60235737 3.98821313 5.26224651 5.98944339 5 8 C4.67 8 4.34 8 4 8 C3.67 10.31 3.34 12.62 3 15 C2.67 15 2.34 15 2 15 C2 10.38 2 5.76 2 1 C1.34 0.67 0.68 0.34 0 0 Z " fill="#E1C88E" transform="translate(248,310)"/>
<path d="M0 0 C0.33 1.32 0.66 2.64 1 4 C2.32 4.33 3.64 4.66 5 5 C3.68 5 2.36 5 1 5 C1 7.31 1 9.62 1 12 C0.34 12 -0.32 12 -1 12 C-1.02687279 10.18757948 -1.04633715 8.37504767 -1.0625 6.5625 C-1.07410156 5.55316406 -1.08570313 4.54382813 -1.09765625 3.50390625 C-1 1 -1 1 0 0 Z " fill="#CFAB5D" transform="translate(205,314)"/>
<path d="M0 0 C2.64 0.66 5.28 1.32 8 2 C8 2.66 8 3.32 8 4 C-0.57142857 4.28571429 -0.57142857 4.28571429 -4 2 C-2.68 2 -1.36 2 0 2 C0 1.34 0 0.68 0 0 Z " fill="#DABB76" transform="translate(340,287)"/>
<path d="M0 0 C1.16959987 0.97566112 2.33561177 1.955625 3.5 2.9375 C4.1496875 3.48277344 4.799375 4.02804687 5.46875 4.58984375 C6.22671875 5.28787109 6.22671875 5.28787109 7 6 C7 6.33 7 6.66 7 7 C4.75 7.375 4.75 7.375 2 7 C-0.3125 4 -0.3125 4 -2 1 C-1.34 0.67 -0.68 0.34 0 0 Z " fill="#DFC382" transform="translate(309,320)"/>
<path d="M0 0 C-4.455 0.495 -4.455 0.495 -9 1 C-9 0.34 -9 -0.32 -9 -1 C-10.32 -1.33 -11.64 -1.66 -13 -2 C-7.41194975 -3.14301028 -4.75621128 -3.17080752 0 0 Z " fill="#DEBF7A" transform="translate(281,182)"/>
<path d="M0 0 C2.64 0 5.28 0 8 0 C7.54625 0.5775 7.0925 1.155 6.625 1.75 C5.15886484 3.7800333 4.05142216 5.73539843 3 8 C2.814375 6.576875 2.814375 6.576875 2.625 5.125 C2.28312823 1.91332809 2.28312823 1.91332809 0 0 Z " fill="#D9BB79" transform="translate(259,310)"/>
<path d="M0 0 C1.12894876 0.93274109 2.25300876 1.87140122 3.375 2.8125 C4.00148437 3.33457031 4.62796875 3.85664063 5.2734375 4.39453125 C7 6 7 6 9 9 C5.30712847 8.09729807 3.44631711 7.59508949 1.125 4.5 C0 2 0 2 0 0 Z " fill="#D0B066" transform="translate(163,242)"/>
<path d="M0 0 C1.68762851 1.6454378 3.3540349 3.31288577 5 5 C5 5.33 5 5.66 5 6 C3.02 6 1.04 6 -1 6 C-0.67 4.02 -0.34 2.04 0 0 Z " fill="#E0C382" transform="translate(190,321)"/>
<path d="M0 0 C2.00720923 0.28674418 4.0085944 0.61866701 6 1 C5 2.5625 5 2.5625 3 4 C0.23385218 3.96726452 -2.26030547 3.49404328 -5 3 C-4.360625 2.690625 -3.72125 2.38125 -3.0625 2.0625 C-1.06389179 1.1654837 -1.06389179 1.1654837 0 0 Z " fill="#E0C27E" transform="translate(296,301)"/>
<path d="M0 0 C1.98 0.495 1.98 0.495 4 1 C3.67 2.32 3.34 3.64 3 5 C1.68 5.33 0.36 5.66 -1 6 C-0.67 4.02 -0.34 2.04 0 0 Z " fill="#DDBC76" transform="translate(212,312)"/>
<path d="M0 0 C3 3.75 3 3.75 3 6 C1.35 6 -0.3 6 -2 6 C-1.34 4.02 -0.68 2.04 0 0 Z " fill="#FCFAF6" transform="translate(185,313)"/>
<path d="M0 0 C1.98 0 3.96 0 6 0 C5.34 1.98 4.68 3.96 4 6 C3.71125 5.38125 3.4225 4.7625 3.125 4.125 C2.06279958 1.86674235 2.06279958 1.86674235 0 0 Z " fill="#DFC27F" transform="translate(298,310)"/>
</svg>
