<?xml version="1.0" encoding="UTF-8"?>
<svg version="1.1" xmlns="http://www.w3.org/2000/svg" width="500" height="500">
<path d="M0 0 C12.49172879 -0.09283266 24.98337501 -0.16383252 37.47537899 -0.20724869 C43.27643489 -0.22809021 49.07725412 -0.25634544 54.87817383 -0.30175781 C60.48028948 -0.34533755 66.08217801 -0.36916293 71.68445015 -0.37950897 C73.81781144 -0.38687855 75.95116082 -0.40126954 78.08442497 -0.42292023 C81.08121111 -0.45211504 84.0770683 -0.45594924 87.07397461 -0.45410156 C87.94863876 -0.46848267 88.82330292 -0.48286377 89.72447205 -0.49768066 C98.75528582 -0.43774746 105.65779113 2.97796505 112.2109375 9.07421875 C119.67535851 17.10906495 121.49476352 25.45009337 121.3046875 36.2421875 C120.53602449 45.72236465 116.15053561 52.81344445 109 59 C101.53984258 63.69340234 95.64940033 65.05248688 87 65 C89.12300097 71.96606549 91.25268579 78.93005184 93.39051342 85.89158249 C94.3833988 89.12548984 95.37412063 92.36002461 96.35961914 95.59619141 C97.49837004 99.33152483 98.64495203 103.06438037 99.79296875 106.796875 C100.31204048 108.50855865 100.31204048 108.50855865 100.84159851 110.25482178 C107.87198937 133.00672726 118.40682784 152.03252626 140.03125 163.625 C151.58850051 169.23531578 163.14550524 172.52913939 176 173 C176.33 173.99 176.66 174.98 177 176 C155.99454281 177.33603615 135.14993668 170.46641246 119 157 C118.06414062 156.2265625 117.12828125 155.453125 116.1640625 154.65625 C97.82091234 138.77560493 90.89158027 117.91328318 84.125 95.375 C83.45704156 93.18579706 82.78777822 90.99699181 82.1171875 88.80859375 C80.65134173 84.02139488 79.1978975 79.23063259 77.75613403 74.43612671 C76.87919238 71.61077976 75.93550051 68.80650153 75 66 C69.06 65.67 63.12 65.34 57 65 C57 64.34 57 63.68 57 63 C57.82089111 62.9906543 58.64178223 62.98130859 59.48754883 62.97167969 C62.58748492 62.92717987 65.68649953 62.86535424 68.78588867 62.79248047 C70.76523235 62.75099079 72.74495031 62.72877488 74.72460938 62.70703125 C86.3578099 62.41251984 95.56646709 60.42139739 104.12109375 52.21875 C109.7271336 45.59872789 111.55857535 37.51827409 111 29 C109.40993058 20.87447578 106.29304189 13.22825899 99.52734375 8.140625 C93.22980529 4.24524038 88.81252305 2.87253285 81.39550781 2.88647461 C80.74143448 2.88632858 80.08736115 2.88618256 79.41346741 2.8860321 C77.25998574 2.88672659 75.10659148 2.89449717 72.953125 2.90234375 C71.45668586 2.90420958 69.96024612 2.90563271 68.46380615 2.90663147 C64.53141585 2.91044365 60.59906268 2.92026283 56.66668701 2.93133545 C52.65149437 2.94157751 48.6362957 2.94613508 44.62109375 2.95117188 C36.74737883 2.96188628 28.87369404 2.97894709 21 3 C21.59659676 3.6205854 21.59659676 3.6205854 22.20524597 4.25370789 C26.14035576 8.55386111 28.30836935 12.36744857 30.05078125 17.89453125 C30.43430504 19.03918854 30.43430504 19.03918854 30.82557678 20.20697021 C31.66973069 22.73739205 32.49080432 25.27470567 33.3125 27.8125 C33.91509484 29.63135359 34.51946928 31.44961841 35.12548828 33.26733398 C36.41960261 37.15326263 37.70594412 41.04164982 38.98779297 44.93164062 C40.99781411 51.01405409 43.05673582 57.07914217 45.12890625 63.140625 C45.47644958 64.15766006 45.82399292 65.17469513 46.18206787 66.22254944 C46.89010866 68.29392865 47.59827982 70.36526329 48.30657959 72.43655396 C53.08267037 86.41026875 57.81718614 100.39583788 62.42578125 114.42578125 C63.14856312 116.61972252 63.87138163 118.81365172 64.59423828 121.00756836 C65.95588201 125.14179355 67.30536907 129.2797167 68.64794922 133.42016602 C75.47769131 154.2941198 82.89610893 170.11562092 103.125 180.875 C109.95179955 184.08888036 116.77541964 185.13718192 124.25 185.65625 C124.8275 185.7696875 125.405 185.883125 126 186 C126.33 186.66 126.66 187.32 127 188 C107.55123395 188.94208232 93.19123682 185.23535019 77.75 172.6875 C66.5810158 162.43026961 60.96074857 147.8720096 56.46875 133.74609375 C55.85887805 131.87812616 55.2489933 130.01016264 54.63838959 128.14243412 C53.37168616 124.25799734 52.12112887 120.36833652 50.86993408 116.47888184 C49.8332798 113.25760109 48.79243189 110.0378293 47.74035645 106.82154846 C46.95801907 104.42721501 46.1848499 102.02985811 45.42272949 99.62901306 C41.23337903 86.8298126 36.22935016 76.25777832 24 69.6875 C17.23874737 66.60341985 10.34226209 65.67560865 3 65 C2.82662613 65.66313705 2.65325226 66.32627411 2.47462463 67.00950623 C0.64985916 73.85932867 -1.44046663 80.57520437 -3.72265625 87.28515625 C-4.06880478 88.30806259 -4.41495331 89.33096893 -4.77159119 90.38487244 C-5.4968084 92.52401006 -6.22376118 94.66256002 -6.95239258 96.80053711 C-8.06943276 100.08287138 -9.17651574 103.36845965 -10.28320312 106.65429688 C-10.99158656 108.73978755 -11.70054989 110.82508137 -12.41015625 112.91015625 C-12.74040298 113.89339371 -13.07064972 114.87663116 -13.41090393 115.8896637 C-13.72140182 116.79498337 -14.03189972 117.70030304 -14.35180664 118.63305664 C-14.62255508 119.43038712 -14.89330353 120.22771759 -15.17225647 121.04920959 C-16 123 -16 123 -18 125 C-19.79193101 119.85128005 -17.95275999 115.89036701 -16.2109375 111 C-15.91063629 110.12786865 -15.61033508 109.2557373 -15.30093384 108.35717773 C-14.33691007 105.56738675 -13.35598173 102.78386706 -12.375 100 C-11.73721964 98.1579193 -11.10049007 96.31547443 -10.46484375 94.47265625 C-7.152751 84.91110146 -3.72877519 75.4081209 0 66 C-12.68321237 70.86429328 -20.87146675 75.66552168 -27.03515625 88.0859375 C-30.53310772 96.83895095 -30.2898657 107.72262336 -27.16015625 116.55859375 C-22.32580191 126.73189835 -15.83092746 132.71201443 -5.5625 137.0234375 C3.35955764 140.14043841 12.39429628 140.06580465 21.2578125 136.8515625 C23.19498586 136.02152167 23.19498586 136.02152167 25 134 C25.79078193 129.14233958 25.0951238 124.81406181 23.375 120.25 C22.30158262 117.32481046 21.93681964 116.31590179 22.5625 113.1875 C25.48387097 108.74193548 25.48387097 108.74193548 28 107 C32.65459195 106.13707003 35.95973062 106.34983164 40 108.875 C42.53027976 111.56342224 42.94882669 112.47803225 43.3125 116.1875 C42.71808372 123.43937856 38.49042266 128.17325705 33.421875 133.0703125 C23.03550888 141.34590099 11.85102185 143.18199222 -1 142 C-7.98059294 140.45621502 -13.45622418 137.43502065 -19 133 C-24.00090248 144.12978506 -24.00090248 144.12978506 -26 156 C-25.01 156.33 -24.02 156.66 -23 157 C-23 157.66 -23 158.32 -23 159 C-27.29 159 -31.58 159 -36 159 C-35.67 158.01 -35.34 157.02 -35 156 C-34.23429688 155.65839844 -33.46859375 155.31679688 -32.6796875 154.96484375 C-28.42748877 151.84697792 -27.64271805 147.46868858 -26.125 142.5625 C-25.8053125 141.60794922 -25.485625 140.65339844 -25.15625 139.66992188 C-23.1145913 133.88268584 -23.1145913 133.88268584 -24 128 C-24.93452159 126.34892103 -25.91813013 124.72508669 -26.9375 123.125 C-32.62353529 113.76616679 -34.46501851 103.351765 -31.84765625 92.5703125 C-27.93164806 80.69596508 -21.99607411 72.38454746 -10.875 66.5625 C-6.90104661 64.62822826 -3.38573135 63.56611072 1 63 C1.14405273 62.48332764 1.28810547 61.96665527 1.43652344 61.43432617 C3.0783051 55.7518315 4.96641639 50.18186209 6.953125 44.61328125 C7.49495521 43.08274018 8.03661911 41.55214022 8.578125 40.02148438 C9.41561293 37.65558098 10.25753042 35.29173811 11.11328125 32.93237305 C11.94916616 30.62247762 12.76518886 28.30633653 13.578125 25.98828125 C13.83636047 25.29019852 14.09459595 24.59211578 14.36065674 23.87287903 C15.97483319 19.19834327 16.15765803 15.80150012 15 11 C11.63377448 5.35342815 8.29297298 4.04084277 2.01171875 2.4453125 C1.34785156 2.29835938 0.68398437 2.15140625 0 2 C0 1.34 0 0.68 0 0 Z M18 22 C14.84890557 29.57688902 12.09059499 37.2759303 9.42578125 45.03466797 C8.74110633 47.02586489 8.05043539 49.01491764 7.359375 51.00390625 C6.92151721 52.27331414 6.48400402 53.54284097 6.046875 54.8125 C5.65338867 55.95332031 5.25990234 57.09414062 4.85449219 58.26953125 C3.90044544 60.84127754 3.90044544 60.84127754 4 63 C4.94359375 63.07476562 5.8871875 63.14953125 6.859375 63.2265625 C19.28724035 64.4992957 28.8131451 68.23072941 38 77 C35.45879354 66.68500535 31.90822138 56.71582307 28.4375 46.6875 C27.84146947 44.95779508 27.24576399 43.22797811 26.65039062 41.49804688 C25.81199669 39.06206701 24.97317332 36.62624743 24.13169861 34.19132996 C22.73030808 30.13531382 21.34810722 26.07414526 20 22 C19.34 22 18.68 22 18 22 Z " fill="#EA2C2C" transform="translate(187,117)"/>
<path d="M0 0 C2 3 2 3 1.72143555 5.18286133 C-0.64687669 13.11592113 -3.35960918 20.9075423 -6.1875 28.6875 C-6.65598826 29.98618775 -7.1240896 31.28501515 -7.59179688 32.58398438 C-8.72408604 35.72404402 -9.86022183 38.86265268 -11 42 C-10.27409668 41.97897217 -9.54819336 41.95794434 -8.80029297 41.9362793 C-3.55263218 41.84760982 0.93907861 41.80962612 5.875 43.8125 C6.73867187 44.14894531 7.60234375 44.48539063 8.4921875 44.83203125 C11.11814591 46.05502434 13.54540215 47.46477661 16 49 C15.34 49.99 14.68 50.98 14 52 C13.236875 51.401875 12.47375 50.80375 11.6875 50.1875 C4.78180182 45.59455923 -3.91436027 44.66275735 -12 44 C-12.17337387 44.66313705 -12.34674774 45.32627411 -12.52537537 46.00950623 C-14.35014084 52.85932867 -16.44046663 59.57520437 -18.72265625 66.28515625 C-19.06880478 67.30806259 -19.41495331 68.33096893 -19.77159119 69.38487244 C-20.4968084 71.52401006 -21.22376118 73.66256002 -21.95239258 75.80053711 C-23.06943276 79.08287138 -24.17651574 82.36845965 -25.28320312 85.65429688 C-25.99158656 87.73978755 -26.70054989 89.82508137 -27.41015625 91.91015625 C-27.74040298 92.89339371 -28.07064972 93.87663116 -28.41090393 94.8896637 C-28.72140182 95.79498337 -29.03189972 96.70030304 -29.35180664 97.63305664 C-29.62255508 98.43038712 -29.89330353 99.22771759 -30.17225647 100.04920959 C-31 102 -31 102 -33 104 C-34.79193101 98.85128005 -32.95275999 94.89036701 -31.2109375 90 C-30.91063629 89.12786865 -30.61033508 88.2557373 -30.30093384 87.35717773 C-29.33691007 84.56738675 -28.35598173 81.78386706 -27.375 79 C-26.73721964 77.1579193 -26.10049007 75.31547443 -25.46484375 73.47265625 C-22.152751 63.91110146 -18.72877519 54.4081209 -15 45 C-27.68321237 49.86429328 -35.87146675 54.66552168 -42.03515625 67.0859375 C-45.53310772 75.83895095 -45.2898657 86.72262336 -42.16015625 95.55859375 C-37.32580191 105.73189835 -30.83092746 111.71201443 -20.5625 116.0234375 C-11.64044236 119.14043841 -2.60570372 119.06580465 6.2578125 115.8515625 C8.19498586 115.02152167 8.19498586 115.02152167 10 113 C10.79078193 108.14233958 10.0951238 103.81406181 8.375 99.25 C7.30158262 96.32481046 6.93681964 95.31590179 7.5625 92.1875 C10.48387097 87.74193548 10.48387097 87.74193548 13 86 C17.65459195 85.13707003 20.95973062 85.34983164 25 87.875 C27.53027976 90.56342224 27.94882669 91.47803225 28.3125 95.1875 C27.71808372 102.43937856 23.49042266 107.17325705 18.421875 112.0703125 C8.03550888 120.34590099 -3.14897815 122.18199222 -16 121 C-22.98059294 119.45621502 -28.45622418 116.43502065 -34 112 C-39.00090248 123.12978506 -39.00090248 123.12978506 -41 135 C-40.01 135.33 -39.02 135.66 -38 136 C-38 136.66 -38 137.32 -38 138 C-42.29 138 -46.58 138 -51 138 C-50.67 137.01 -50.34 136.02 -50 135 C-49.23429688 134.65839844 -48.46859375 134.31679688 -47.6796875 133.96484375 C-43.42748877 130.84697792 -42.64271805 126.46868858 -41.125 121.5625 C-40.8053125 120.60794922 -40.485625 119.65339844 -40.15625 118.66992188 C-38.1145913 112.88268584 -38.1145913 112.88268584 -39 107 C-39.93452159 105.34892103 -40.91813013 103.72508669 -41.9375 102.125 C-47.62353529 92.76616679 -49.46501851 82.351765 -46.84765625 71.5703125 C-42.93164806 59.69596508 -36.99607411 51.38454746 -25.875 45.5625 C-21.90104661 43.62822826 -18.38573135 42.56611072 -14 42 C-13.84942139 41.47100098 -13.69884277 40.94200195 -13.54370117 40.39697266 C-11.08107903 31.95993661 -8.1879196 23.67767039 -5.3125 15.375 C-4.79604035 13.87896962 -4.27976292 12.38287633 -3.76367188 10.88671875 C-2.51121261 7.25708425 -1.25629613 3.62830818 0 0 Z " fill="#BD2323" transform="translate(202,138)"/>
<path d="M0 0 C2.87029869 1.79393668 4.49131638 2.98263276 6 6 C6.56090677 11.72124904 5.4341639 15.48542498 2 20 C-2.72430732 25.5604679 -7.29844792 29.12790625 -14 32 C-13.125 28.125 -13.125 28.125 -12 27 C-11.42899535 22.08057532 -11.87132479 17.87473638 -13.625 13.25 C-14.69841738 10.32481046 -15.06318036 9.31590179 -14.4375 6.1875 C-10.47249783 0.15380105 -7.16875484 -1.30340997 0 0 Z " fill="#F12E2E" transform="translate(224,224)"/>
<path d="M0 0 C3.22680034 1.10921262 5.87721123 2.54497288 8.6875 4.4375 C18.39890211 10.57292788 29.14577212 11.42305757 40.25 9 C41.4875 8.67 42.725 8.34 44 8 C43.67 8.99 43.34 9.98 43 11 C33.00131541 14.78122844 21.15341011 14.3536464 11.3515625 10.22265625 C7.93530698 8.44643037 5.00626862 6.40501489 2 4 C-3.00090248 15.12978506 -3.00090248 15.12978506 -5 27 C-4.01 27.33 -3.02 27.66 -2 28 C-2 28.66 -2 29.32 -2 30 C-6.29 30 -10.58 30 -15 30 C-14.505 28.515 -14.505 28.515 -14 27 C-13.23042969 26.6596875 -12.46085938 26.319375 -11.66796875 25.96875 C-7.43152181 22.8425871 -6.75690737 18.41559138 -5.3125 13.5 C-4.72904169 11.59258924 -4.14195296 9.68628423 -3.55078125 7.78125 C-3.29981689 6.93626953 -3.04885254 6.09128906 -2.7902832 5.22070312 C-2 3 -2 3 0 0 Z " fill="#BB2222" transform="translate(166,246)"/>
<path d="M0 0 C1.93719378 -0.05406122 3.87481921 -0.09282025 5.8125 -0.125 C6.89144531 -0.14820313 7.97039062 -0.17140625 9.08203125 -0.1953125 C12 0 12 0 15 2 C15.375 4.4375 15.375 4.4375 15 7 C14.01 7.99 13.02 8.98 12 10 C13.98 12.31 15.96 14.62 18 17 C15.8125 17.375 15.8125 17.375 13 17 C10.3125 14.0625 10.3125 14.0625 8 11 C7.34 10.67 6.68 10.34 6 10 C6.66 12.31 7.32 14.62 8 17 C5.36 17 2.72 17 0 17 C0.33 16.34 0.66 15.68 1 15 C1.09685088 12.83509805 1.12979438 10.66706197 1.125 8.5 C1.12757813 7.3346875 1.13015625 6.169375 1.1328125 4.96875 C1.2048431 2.07069214 1.2048431 2.07069214 0 0 Z M7 1 C5.70366379 2.06645115 5.70366379 2.06645115 5.9375 4.5625 C5.958125 5.366875 5.97875 6.17125 6 7 C7.65 6.67 9.3 6.34 11 6 C11 4.68 11 3.36 11 2 C9.05396726 1.40929986 9.05396726 1.40929986 7 1 Z " fill="#42A5A8" transform="translate(298,310)"/>
<path d="M0 0 C1.93719378 -0.05406122 3.87481921 -0.09282025 5.8125 -0.125 C6.89144531 -0.14820313 7.97039062 -0.17140625 9.08203125 -0.1953125 C12 0 12 0 15 2 C14.45276317 5.37462715 13.9451 7.08235 12 10 C13.98 12.31 15.96 14.62 18 17 C15.8125 17.375 15.8125 17.375 13 17 C10.3125 14.0625 10.3125 14.0625 8 11 C7.34 10.67 6.68 10.34 6 10 C6.66 12.31 7.32 14.62 8 17 C5.36 17 2.72 17 0 17 C0.33 16.34 0.66 15.68 1 15 C1.09685088 12.83509805 1.12979438 10.66706197 1.125 8.5 C1.12757813 7.3346875 1.13015625 6.169375 1.1328125 4.96875 C1.2048431 2.07069214 1.2048431 2.07069214 0 0 Z M6 1 C6 3.31 6 5.62 6 8 C7.65 7.67 9.3 7.34 11 7 C11.33 6.01 11.66 5.02 12 4 C10.68798827 2.43750191 10.68798827 2.43750191 9 1 C8.01 1 7.02 1 6 1 Z " fill="#3C9598" transform="translate(201,310)"/>
<path d="M0 0 C2.97 0 5.94 0 9 0 C8.67 0.66 8.34 1.32 8 2 C7.34 2 6.68 2 6 2 C6 3.65 6 5.3 6 7 C8.97 7 11.94 7 15 7 C14.42547254 3.06924356 14.42547254 3.06924356 12 0 C14.64 0 17.28 0 20 0 C19.67 0.66 19.34 1.32 19 2 C18.90314912 4.16490195 18.87020562 6.33293803 18.875 8.5 C18.87242187 9.6653125 18.86984375 10.830625 18.8671875 12.03125 C18.7951569 14.92930786 18.7951569 14.92930786 20 17 C17.36 17 14.72 17 12 17 C12.66 16.34 13.32 15.68 14 15 C14.39764263 13.01178687 14.73775349 11.01055661 15 9 C12.03 9 9.06 9 6 9 C6.44703986 13.47883696 6.44703986 13.47883696 9 17 C6.36 17 3.72 17 1 17 C1.33 16.34 1.66 15.68 2 15 C2.12244289 12.83589316 2.17551142 10.66753477 2.1875 8.5 C2.20167969 7.3346875 2.21585938 6.169375 2.23046875 4.96875 C2.31443714 1.88093282 2.31443714 1.88093282 0 0 Z " fill="#3E9A9D" transform="translate(247,310)"/>
<path d="M0 0 C1.98 0 3.96 0 6 0 C6.98065487 2.27020102 7.9595769 4.54112254 8.9375 6.8125 C9.21529297 7.45509766 9.49308594 8.09769531 9.77929688 8.75976562 C10.9518811 11.48637715 12.06089549 14.18268646 13 17 C10.69 17 8.38 17 6 17 C6.66 16.67 7.32 16.34 8 16 C7.67 14.35 7.34 12.7 7 11 C4.69 11 2.38 11 0 11 C0 12.65 0 14.3 0 16 C0.66 16.33 1.32 16.66 2 17 C-0.31 17 -2.62 17 -5 17 C-4.55527344 15.94039063 -4.11054688 14.88078125 -3.65234375 13.7890625 C-3.08032304 12.40120899 -2.50873056 11.01317892 -1.9375 9.625 C-1.64294922 8.92632812 -1.34839844 8.22765625 -1.04492188 7.5078125 C-0.30408902 5.69495092 0.35396964 3.84876857 1 2 C0.67 1.34 0.34 0.68 0 0 Z M3 5 C2.67 6.32 2.34 7.64 2 9 C2.99 9 3.98 9 5 9 C4.67 7.68 4.34 6.36 4 5 C3.67 5 3.34 5 3 5 Z " fill="#3A8C90" transform="translate(182,310)"/>
<path d="M0 0 C2.97 0 5.94 0 9 0 C8.67 0.66 8.34 1.32 8 2 C7.34 2 6.68 2 6 2 C6.33 5.96 6.66 9.92 7 14 C8.98 14 10.96 14 13 14 C14.65653686 12.34346314 14.17106165 10.39349204 14.1875 8.125 C14.20167969 7.24070312 14.21585937 6.35640625 14.23046875 5.4453125 C14.17068424 2.74233274 14.17068424 2.74233274 12 0 C14.31 0 16.62 0 19 0 C18.67 0.66 18.34 1.32 18 2 C17.89740164 3.76982166 17.81712126 5.54097809 17.75 7.3125 C17.40679282 11.26978277 17.10423245 12.84058566 14.875 16.25 C12 18 12 18 8.3125 17.9375 C5 17 5 17 3 15 C2.65625 12.5390625 2.65625 12.5390625 2.5 9.625 C2.27985228 5.54125988 1.89919775 3.79839549 0 0 Z " fill="#36888A" transform="translate(273,310)"/>
<path d="M0 0 C5.61 0 11.22 0 17 0 C17 1.98 17 3.96 17 6 C16.34 6 15.68 6 15 6 C14 5 13 4 12 3 C11.34 3 10.68 3 10 3 C10.11376617 5.12563103 10.24135631 7.2505261 10.375 9.375 C10.44460937 10.55835938 10.51421875 11.74171875 10.5859375 12.9609375 C10.70217346 16.10562319 10.70217346 16.10562319 13 18 C10.03 18 7.06 18 4 18 C4.66 17.01 5.32 16.02 6 15 C6.24187651 12.25481679 6.24187651 12.25481679 6.125 9.3125 C6.10695312 8.31863281 6.08890625 7.32476562 6.0703125 6.30078125 C6.04710937 5.54152344 6.02390625 4.78226562 6 4 C5.34 3.67 4.68 3.34 4 3 C3.54625 3.495 3.0925 3.99 2.625 4.5 C1 6 1 6 -1 6 C-0.67 4.02 -0.34 2.04 0 0 Z " fill="#46AEB2" transform="translate(225,309)"/>
<path d="M0 0 C0.33 0 0.66 0 1 0 C1.08636719 0.96679688 1.17273438 1.93359375 1.26171875 2.9296875 C2.28047096 12.36950151 3.65773599 21.23569846 11 28 C10.34 29.32 9.68 30.64 9 32 C1.19657862 20.36969526 -1.78606398 14.11636112 0 0 Z " fill="#AC2020" transform="translate(156,216)"/>
<path d="M0 0 C0.99 0 1.98 0 3 0 C3 2.31 3 4.62 3 7 C4.32 7.33 5.64 7.66 7 8 C6.01 8.33 5.02 8.66 4 9 C4.66 11.31 5.32 13.62 6 16 C3.36 16 0.72 16 -2 16 C-1.67 15.34 -1.34 14.68 -1 14 C-0.76970044 11.62876754 -0.58880058 9.25258057 -0.4375 6.875 C-0.35371094 5.59367187 -0.26992187 4.31234375 -0.18359375 2.9921875 C-0.09271484 1.51105469 -0.09271484 1.51105469 0 0 Z " fill="#42A1A5" transform="translate(203,311)"/>
<path d="M0 0 C2.64 0 5.28 0 8 0 C7.67 0.66 7.34 1.32 7 2 C6.90314912 4.16490195 6.87020562 6.33293803 6.875 8.5 C6.87242187 9.6653125 6.86984375 10.830625 6.8671875 12.03125 C6.7951569 14.92930786 6.7951569 14.92930786 8 17 C5.36 17 2.72 17 0 17 C0.66 16.34 1.32 15.68 2 15 C2.32027305 11.94180773 2.32027305 11.94180773 2.25 8.5 C2.25515625 7.3346875 2.2603125 6.169375 2.265625 4.96875 C2.30925773 1.88173935 2.30925773 1.88173935 0 0 Z " fill="#46ADB0" transform="translate(259,310)"/>
<path d="M0 0 C1.93719378 -0.05406122 3.87481921 -0.09282025 5.8125 -0.125 C6.89144531 -0.14820313 7.97039062 -0.17140625 9.08203125 -0.1953125 C12 0 12 0 15 2 C15.5 4.4375 15.5 4.4375 15 7 C12.8125 8.9375 12.8125 8.9375 10 10 C7.1875 9.1875 7.1875 9.1875 5 8 C5 5.69 5 3.38 5 1 C3.68 1.33 2.36 1.66 1 2 C0.67 1.34 0.34 0.68 0 0 Z M7 1 C5.70366379 2.06645115 5.70366379 2.06645115 5.9375 4.5625 C5.958125 5.366875 5.97875 6.17125 6 7 C7.65 6.67 9.3 6.34 11 6 C11 4.68 11 3.36 11 2 C9.05396726 1.40929986 9.05396726 1.40929986 7 1 Z " fill="#328183" transform="translate(298,310)"/>
<path d="M0 0 C0.66 0 1.32 0 2 0 C2.33 1.98 2.66 3.96 3 6 C3.99 6.33 4.98 6.66 6 7 C6 7.66 6 8.32 6 9 C1.71 9 -2.58 9 -7 9 C-5.73958325 5.21874975 -4.31129455 4.98677673 -1 3 C-0.67 2.01 -0.34 1.02 0 0 Z " fill="#D82929" transform="translate(158,267)"/>
<path d="M0 0 C-0.33 0.99 -0.66 1.98 -1 3 C-6.20081385 5.02142314 -10.90941935 5.25650055 -16.4375 5.125 C-17.16904297 5.11597656 -17.90058594 5.10695313 -18.65429688 5.09765625 C-20.43634298 5.07436153 -22.21821759 5.0385019 -24 5 C-24.33 4.34 -24.66 3.68 -25 3 C-23.38931641 2.92652344 -23.38931641 2.92652344 -21.74609375 2.8515625 C-20.30987358 2.77646602 -18.87367681 2.70092124 -17.4375 2.625 C-16.73302734 2.5940625 -16.02855469 2.563125 -15.30273438 2.53125 C-10.12494352 2.24492055 -5.01432197 0 0 0 Z " fill="#D02727" transform="translate(210,254)"/>
<path d="M0 0 C5.61 0 11.22 0 17 0 C17 1.98 17 3.96 17 6 C16.34 6 15.68 6 15 6 C14.566875 5.525625 14.13375 5.05125 13.6875 4.5625 C11.55306267 2.58616914 9.83692053 2.38336764 7 2 C6.67 2.66 6.34 3.32 6 4 C5.34 3.67 4.68 3.34 4 3 C3.54625 3.495 3.0925 3.99 2.625 4.5 C1 6 1 6 -1 6 C-0.67 4.02 -0.34 2.04 0 0 Z " fill="#338486" transform="translate(225,309)"/>
<path d="M0 0 C1.98 0 3.96 0 6 0 C6.66 2.31 7.32 4.62 8 7 C7.34 7 6.68 7 6 7 C5.67 7.66 5.34 8.32 5 9 C4.34 8.01 3.68 7.02 3 6 C2.34 6.99 1.68 7.98 1 9 C0.06576355 5.98968256 -0.04449911 5.13349732 1 2 C0.67 1.34 0.34 0.68 0 0 Z " fill="#368688" transform="translate(182,310)"/>
<path d="M0 0 C3.08268724 1.53377565 6.05108038 3.22409507 9 5 C8.01 6.485 8.01 6.485 7 8 C5.8553125 7.1028125 5.8553125 7.1028125 4.6875 6.1875 C0.25946492 3.1892401 -4.85799824 2.20772995 -10 1 C-6.12687296 -1.12237452 -4.34056339 -1.22846134 0 0 Z " fill="#A81F1F" transform="translate(209,182)"/>
<path d="M0 0 C4.62 0 9.24 0 14 0 C14.33 0.99 14.66 1.98 15 3 C12.87506859 3.02693575 10.75004088 3.04636628 8.625 3.0625 C7.44164062 3.07410156 6.25828125 3.08570313 5.0390625 3.09765625 C2 3 2 3 0 2 C0 1.34 0 0.68 0 0 Z " fill="#BD2323" transform="translate(349,290)"/>
<path d="M0 0 C2.97 0 5.94 0 9 0 C8.67 0.66 8.34 1.32 8 2 C7.01 2 6.02 2 5 2 C5 5.63 5 9.26 5 13 C4.01 13.495 4.01 13.495 3 14 C2.92652344 12.98679687 2.92652344 12.98679687 2.8515625 11.953125 C2.77679688 11.06109375 2.70203125 10.1690625 2.625 9.25 C2.55539062 8.36828125 2.48578125 7.4865625 2.4140625 6.578125 C2.07643063 3.65332423 2.07643063 3.65332423 0 0 Z " fill="#49B4B8" transform="translate(273,310)"/>
<path d="M0 0 C0.33 0.66 0.66 1.32 1 2 C2.65 2 4.3 2 6 2 C6 1.34 6 0.68 6 0 C6.66 0 7.32 0 8 0 C7.67 0.99 7.34 1.98 7 3 C4.69 3 2.38 3 0 3 C0 4.98 0 6.96 0 9 C0.66 9.33 1.32 9.66 2 10 C-0.31 10 -2.62 10 -5 10 C-3.35 6.7 -1.7 3.4 0 0 Z " fill="#40A0A3" transform="translate(182,317)"/>
<path d="M0 0 C0.33 0 0.66 0 1 0 C0.37802877 6.33881314 -0.28542887 12.67094142 -1 19 C-3.05829637 15.64339362 -3.15515468 13.38095533 -2.75 9.5 C-2.61851562 8.09234375 -2.61851562 8.09234375 -2.484375 6.65625 C-2.01516293 4.08315158 -1.29697085 2.25375263 0 0 Z " fill="#CD2626" transform="translate(157,206)"/>
<path d="M0 0 C0.66 0.66 1.32 1.32 2 2 C1.64638402 6.5970078 0.58012426 10.68099369 -1 15 C-3 12 -3 12 -2.79296875 9.84375 C-2.59316406 9.0703125 -2.39335937 8.296875 -2.1875 7.5 C-1.99542969 6.7265625 -1.80335938 5.953125 -1.60546875 5.15625 C-1.11881701 3.42314185 -0.56925335 1.70776005 0 0 Z " fill="#9D1D1D" transform="translate(185,187)"/>
<path d="M0 0 C5.01113235 1.4317521 6.94469549 3.98445693 10 8 C7.8125 8.375 7.8125 8.375 5 8 C2.91167347 6.17130326 1.61663209 4.30947441 0 2 C0 1.34 0 0.68 0 0 Z " fill="#45ADB1" transform="translate(306,319)"/>
<path d="M0 0 C0.66 0 1.32 0 2 0 C2.12375 1.11375 2.2475 2.2275 2.375 3.375 C2.6465813 7.03103677 2.6465813 7.03103677 5 9 C2.36 9 -0.28 9 -3 9 C-2.67 8.34 -2.34 7.68 -2 7 C-1.34 7 -0.68 7 0 7 C0 4.69 0 2.38 0 0 Z " fill="#4BBBBF" transform="translate(251,318)"/>
<path d="M0 0 C3.43595166 1.52708963 6.11912454 3.59927045 9 6 C8.67 7.32 8.34 8.64 8 10 C6.33333333 8.33333333 4.66666667 6.66666667 3 5 C2.401875 4.443125 1.80375 3.88625 1.1875 3.3125 C0 2 0 2 0 0 Z " fill="#CE2626" transform="translate(217,188)"/>
<path d="M0 0 C0.33 0 0.66 0 1 0 C1.16820551 1.93736701 1.33451095 3.87489906 1.5 5.8125 C1.5928125 6.89144531 1.685625 7.97039062 1.78125 9.08203125 C2 12 2 12 2 15 C0.68 14.34 -0.64 13.68 -2 13 C-1.67 12.34 -1.34 11.68 -1 11 C-0.7724985 9.12943209 -0.59037189 7.25314042 -0.4375 5.375 C-0.35371094 4.37210937 -0.26992188 3.36921875 -0.18359375 2.3359375 C-0.12300781 1.56507813 -0.06242187 0.79421875 0 0 Z " fill="#3A8C8F" transform="translate(278,312)"/>
<path d="M0 0 C0.66 0.66 1.32 1.32 2 2 C0.3125 3.5625 0.3125 3.5625 -2 5 C-4.75 4.6875 -4.75 4.6875 -7 4 C-6 2 -6 2 -2.9375 0.875 C-1.4834375 0.441875 -1.4834375 0.441875 0 0 Z " fill="#307E81" transform="translate(287,323)"/>
<path d="M0 0 C0.66 0.66 1.32 1.32 2 2 C1.7578125 4.1640625 1.7578125 4.1640625 1.125 6.625 C0.92132813 7.44226563 0.71765625 8.25953125 0.5078125 9.1015625 C0.34023437 9.72804687 0.17265625 10.35453125 0 11 C-2 8 -2 8 -1.7578125 5.95703125 C-1.171875 3.97135417 -0.5859375 1.98567708 0 0 Z " fill="#B42121" transform="translate(178,208)"/>
<path d="M0 0 C4.16138263 -0.08159574 7.9472484 0.01751476 12 1 C9.34271875 2.73745313 8.10399645 3.00831972 4.875 2.75 C2 2 2 2 0 0 Z " fill="#AF2020" transform="translate(177,255)"/>
<path d="M0 0 C0 0.66 0 1.32 0 2 C-2.64738916 3.4606285 -3.89448334 4 -7 4 C-6.67 3.01 -6.34 2.02 -6 1 C-4 0 -4 0 0 0 Z " fill="#C92626" transform="translate(179,184)"/>
<path d="M0 0 C1.32 0.66 2.64 1.32 4 2 C2.1875 3.5625 2.1875 3.5625 0 5 C-0.99 4.67 -1.98 4.34 -3 4 C-2.01 2.68 -1.02 1.36 0 0 Z " fill="#A51F1F" transform="translate(170,187)"/>
</svg>
